<svg xmlns="http://www.w3.org/2000/svg" width="1080" height="1920" viewBox="0 0 1080 1920" role="img"><defs><linearGradient id="renderer2-bg-1" x1="0%" y1="0%" x2="100%" y2="100%"><stop offset="0%" stop-color="#FBF0E3" /><stop offset="48%" stop-color="#FFF8EF" /><stop offset="100%" stop-color="#FBF0E3" /></linearGradient><linearGradient id="renderer2-depth-2" x1="0%" y1="100%" x2="100%" y2="0%"><stop offset="0%" stop-color="#3B241629" stop-opacity="0.22" /><stop offset="52%" stop-color="#E9B78D" stop-opacity="0.08" /><stop offset="100%" stop-color="#C76B3C" stop-opacity="0.16" /></linearGradient><radialGradient id="renderer2-light-3" cx="28%" cy="28%" r="68%"><stop offset="0%" stop-color="#E9B78D" stop-opacity="0.46" /><stop offset="56%" stop-color="#FFF8EF" stop-opacity="0.12" /><stop offset="100%" stop-color="#FBF0E3" stop-opacity="0" /></radialGradient><radialGradient id="renderer2-vignette-4" cx="50%" cy="50%" r="74%"><stop offset="45%" stop-color="#000000" stop-opacity="0" /><stop offset="100%" stop-color="#3B241629" stop-opacity="0.24" /></radialGradient><pattern id="renderer2-texture-5" width="48" height="48" patternUnits="userSpaceOnUse"><path d="M0 47 L48 1 M-12 12 L12 -12 M36 60 L60 36" stroke="#E7CDB7" stroke-width="1" opacity="0.07" /><circle cx="11" cy="17" r="1.2" fill="#E9B78D" opacity="0.06" /><circle cx="35" cy="31" r="0.9" fill="#C76B3C" opacity="0.05" /></pattern><clipPath id="renderer2-product-clip-6"><rect x="291.8" y="780.29" width="150.4" height="322.42" rx="8.27" /></clipPath><filter id="renderer2-product-shadow-7" x="-55%" y="-55%" width="210%" height="220%"><feDropShadow dx="0" dy="12.9" stdDeviation="4.81" flood-color="#3B241629" flood-opacity="0.26" /></filter><filter id="renderer2-product-glow-8" x="-70%" y="-70%" width="240%" height="240%"><feGaussianBlur stdDeviation="8" result="blur" /><feColorMatrix in="blur" type="matrix" values="0 0 0 0 0.78 0 0 0 0 0.42 0 0 0 0 0.235 0 0 0 0.6 0" /></filter><linearGradient id="renderer2-product-reflection-9" x1="0%" y1="0%" x2="0%" y2="100%"><stop offset="0%" stop-color="#FFF8EF" stop-opacity="0.24" /><stop offset="100%" stop-color="#FFF8EF" stop-opacity="0" /></linearGradient></defs><g data-background="coffee"><rect x="0" y="0" width="1080" height="1920" fill="url(#renderer2-bg-1)" /><rect x="0" y="0" width="1080" height="1920" fill="url(#renderer2-depth-2)" opacity="0.52" /><ellipse cx="272.7" cy="609.6" rx="359.1" ry="146.4" fill="#E9B78D" opacity="0.04" /><ellipse cx="885.6" cy="873.6" rx="405" ry="158.4" fill="#C76B3C" opacity="0.05" /><ellipse cx="364.5" cy="1137.6" rx="450.9" ry="170.4" fill="#E9B78D" opacity="0.06" /><rect x="0" y="0" width="1080" height="1920" fill="url(#renderer2-light-3)" opacity="0.65" /><rect x="0" y="0" width="1080" height="1920" fill="url(#renderer2-texture-5)" opacity="0.18" /><g data-background-particles="cozy morning ritual"><circle cx="0" cy="326.4" r="1.3" fill="#C76B3C" opacity="0.1" /><circle cx="399.6" cy="1497.6" r="2.05" fill="#E9B78D" opacity="0.13" /><circle cx="799.2" cy="748.8" r="2.8" fill="#E9B78D" opacity="0.15" /><circle cx="118.8" cy="0" r="3.55" fill="#C76B3C" opacity="0.18" /><circle cx="518.4" cy="1171.2" r="4.3" fill="#E9B78D" opacity="0.1" /><circle cx="918" cy="422.4" r="1.3" fill="#E9B78D" opacity="0.13" /><circle cx="237.6" cy="1593.6" r="2.05" fill="#C76B3C" opacity="0.15" /><circle cx="637.2" cy="844.8" r="2.8" fill="#E9B78D" opacity="0.18" /><circle cx="1036.8" cy="96" r="3.55" fill="#E9B78D" opacity="0.1" /><circle cx="356.4" cy="1267.2" r="4.3" fill="#C76B3C" opacity="0.13" /><circle cx="756" cy="518.4" r="1.3" fill="#E9B78D" opacity="0.15" /><circle cx="75.6" cy="1689.6" r="2.05" fill="#E9B78D" opacity="0.18" /><circle cx="475.2" cy="940.8" r="2.8" fill="#C76B3C" opacity="0.1" /><circle cx="874.8" cy="192" r="3.55" fill="#E9B78D" opacity="0.13" /></g><rect x="0" y="0" width="1080" height="1920" fill="#FFF8EF" opacity="0.06" /><rect x="0" y="0" width="1080" height="1920" fill="url(#renderer2-vignette-4)" /><rect x="0" y="0" width="1080" height="1920" fill="none" stroke="#E7CDB7" stroke-width="2" opacity="0.24" /><metadata>{&quot;theme&quot;:&quot;coffee&quot;,&quot;texture&quot;:&quot;warm ceramic, wood, and coffee crema&quot;,&quot;gradient&quot;:&quot;cream to roasted brown ambient wash&quot;,&quot;lighting&quot;:&quot;golden&quot;,&quot;overlay&quot;:&quot;soft steam haze&quot;,&quot;atmosphere&quot;:&quot;cozy morning ritual&quot;}</metadata></g><g opacity="0.32" data-decoration="coffee" data-layering="stacked"><g data-decoration-region="0" data-placement="around-product"><ellipse cx="367" cy="946" rx="115.64" ry="159.22" fill="none" stroke="#E9B78D" stroke-width="1.42" opacity="0.18" /><circle cx="477.81" cy="948.29" r="3.4" fill="#E9B78D" opacity="0.32" /><circle cx="418.08" cy="1075.39" r="4.81" fill="#E9B78D" opacity="0.32" /><circle cx="307.27" cy="1068.61" r="3.4" fill="#E9B78D" opacity="0.32" /><circle cx="256.19" cy="934.71" r="4.81" fill="#E9B78D" opacity="0.32" /><circle cx="315.92" cy="807.61" r="3.4" fill="#E9B78D" opacity="0.32" /><circle cx="426.73" cy="814.39" r="4.81" fill="#E9B78D" opacity="0.32" /><ellipse cx="367" cy="941.5" rx="115.64" ry="159.22" fill="none" stroke="#C76B3C" stroke-width="1.42" opacity="0.37" /><circle cx="477.92" cy="941.5" r="3.4" fill="#C76B3C" opacity="0.68" /><circle cx="422.46" cy="1072.13" r="4.81" fill="#E9B78D" opacity="0.68" /><circle cx="311.54" cy="1072.13" r="3.4" fill="#C76B3C" opacity="0.68" /><circle cx="256.08" cy="941.5" r="4.81" fill="#E9B78D" opacity="0.68" /><circle cx="311.54" cy="810.87" r="3.4" fill="#C76B3C" opacity="0.68" /><circle cx="422.46" cy="810.87" r="4.81" fill="#E9B78D" opacity="0.68" /><ellipse cx="367" cy="934.5" rx="115.64" ry="159.22" fill="none" stroke="#3B2416" stroke-width="1.06" opacity="0.23" /><circle cx="477.65" cy="930.95" r="2.55" fill="#3B2416" opacity="0.42" /><circle cx="318.39" cy="1077.09" r="3.61" fill="#E9B78D" opacity="0.42" /><circle cx="304.96" cy="816.46" r="2.55" fill="#3B2416" opacity="0.42" /></g></g><g data-product-position="lifestyle"><ellipse cx="367" cy="1083.36" rx="57.15" ry="22.57" fill="#3B241629" opacity="0.14" /><g transform="translate(2 -1) rotate(0 367 941.5) skewX(-0.5)" filter="url(#renderer2-product-shadow-7)"><rect x="297.4" y="785.89" width="139.2" height="311.22" rx="9.78" fill="none" stroke="#E7CDB7" stroke-width="1" opacity="0.24" /><rect x="291.8" y="780.29" width="150.4" height="322.42" rx="12.03" fill="#FFF8EF" opacity="0.52" /><path d="M 318.87 980.19 C 342.94 870.57, 394.07 870.57, 415.13 980.19" stroke="#C76B3C" stroke-width="3" fill="none" opacity="0.5" /><text x="367" y="941.5" text-anchor="middle" dominant-baseline="middle" font-family="Source Serif 4" font-size="18" fill="#8B6A55">Product Image</text></g></g><text x="220" y="759" text-anchor="start" font-family="Libre Baskerville" font-size="50" font-weight="700" fill="#3B2416" paint-order="stroke" stroke="#3B2416" stroke-width="0"><tspan x="220" dy="0">Single Origin</tspan><tspan x="220" dy="58">Coffee</tspan></text><text x="220" y="949.4" text-anchor="start" font-family="Source Serif 4" font-size="17" font-weight="400" fill="#8B6A55"><tspan x="220" dy="0">A renderer v2 sample using editorial,</tspan><tspan x="220" dy="20.06">editorial, and warm.</tspan></text><text x="220" y="1083.05" text-anchor="start" font-family="Inter" font-size="19.55" font-weight="700" fill="#C76B3C"><tspan x="220" dy="0">$129</tspan></text><g data-cta="Shop Now"><rect x="220" y="1131" width="267" height="50" rx="25" fill="#3B241629" opacity="0.16" /><rect x="220" y="1123" width="267" height="50" rx="25" fill="#3B2416" stroke="#E7CDB7" stroke-width="1" /><rect x="222" y="1125" width="263" height="21" rx="23" fill="#FFF8EF" opacity="0.1" /><text x="353.5" y="1148" text-anchor="middle" dominant-baseline="middle" font-family="Inter" font-size="17" font-weight="700" fill="#FFF8EF">Shop Now</text></g></svg>