<svg xmlns="http://www.w3.org/2000/svg" width="1080" height="1350" viewBox="0 0 1080 1350" role="img"><defs><linearGradient id="renderer2-bg-1" x1="0%" y1="0%" x2="100%" y2="100%"><stop offset="0%" stop-color="#11100E" /><stop offset="48%" stop-color="#1E1A16" /><stop offset="100%" stop-color="#11100E" /></linearGradient><linearGradient id="renderer2-depth-2" x1="0%" y1="100%" x2="100%" y2="0%"><stop offset="0%" stop-color="#00000066" stop-opacity="0.22" /><stop offset="52%" stop-color="#6E5527" stop-opacity="0.08" /><stop offset="100%" stop-color="#C89B3C" stop-opacity="0.16" /></linearGradient><radialGradient id="renderer2-light-3" cx="58%" cy="28%" r="68%"><stop offset="0%" stop-color="#6E5527" stop-opacity="0.52" /><stop offset="56%" stop-color="#1E1A16" stop-opacity="0.12" /><stop offset="100%" stop-color="#11100E" stop-opacity="0" /></radialGradient><radialGradient id="renderer2-vignette-4" cx="50%" cy="50%" r="74%"><stop offset="45%" stop-color="#000000" stop-opacity="0" /><stop offset="100%" stop-color="#00000066" stop-opacity="0.33" /></radialGradient><pattern id="renderer2-texture-5" width="48" height="48" patternUnits="userSpaceOnUse"><path d="M0 47 L48 1 M-12 12 L12 -12 M36 60 L60 36" stroke="#4E4029" stroke-width="1" opacity="0.1" /><circle cx="11" cy="17" r="1.2" fill="#6E5527" opacity="0.08" /><circle cx="35" cy="31" r="0.9" fill="#C89B3C" opacity="0.07" /></pattern><clipPath id="renderer2-product-clip-6"><rect x="440.68" y="442.44" width="197.64" height="447.12" rx="10.87" /></clipPath><filter id="renderer2-product-shadow-7" x="-55%" y="-55%" width="210%" height="220%"><feDropShadow dx="0" dy="17.88" stdDeviation="6.32" flood-color="#00000066" flood-opacity="0.26" /></filter><filter id="renderer2-product-glow-8" x="-70%" y="-70%" width="240%" height="240%"><feGaussianBlur stdDeviation="8.89" result="blur" /><feColorMatrix in="blur" type="matrix" values="0 0 0 0 0.784 0 0 0 0 0.608 0 0 0 0 0.235 0 0 0 0.6 0" /></filter><linearGradient id="renderer2-product-reflection-9" x1="0%" y1="0%" x2="0%" y2="100%"><stop offset="0%" stop-color="#11100E" stop-opacity="0.24" /><stop offset="100%" stop-color="#11100E" stop-opacity="0" /></linearGradient></defs><g data-background="luxury"><rect x="0" y="0" width="1080" height="1350" fill="url(#renderer2-bg-1)" /><rect x="0" y="0" width="1080" height="1350" fill="url(#renderer2-depth-2)" opacity="0.7" /><ellipse cx="263.52" cy="391.5" rx="349.92" ry="101.25" fill="#6E5527" opacity="0.04" /><ellipse cx="883.44" cy="540" rx="386.64" ry="108" fill="#C89B3C" opacity="0.05" /><ellipse cx="336.96" cy="688.5" rx="423.36" ry="114.75" fill="#6E5527" opacity="0.05" /><ellipse cx="892.08" cy="837" rx="460.08" ry="121.5" fill="#C89B3C" opacity="0.06" /><rect x="0" y="0" width="1080" height="1350" fill="url(#renderer2-light-3)" opacity="0.62" /><rect x="0" y="0" width="1080" height="1350" fill="url(#renderer2-texture-5)" opacity="0.19" /><g data-background-particles="exclusive and refined"><circle cx="0" cy="229.5" r="1.3" fill="#C89B3C" opacity="0.07" /><circle cx="399.6" cy="1053" r="2.05" fill="#6E5527" opacity="0.09" /><circle cx="799.2" cy="526.5" r="2.8" fill="#6E5527" opacity="0.11" /><circle cx="118.8" cy="0" r="3.55" fill="#C89B3C" opacity="0.13" /><circle cx="518.4" cy="823.5" r="4.3" fill="#6E5527" opacity="0.07" /><circle cx="918" cy="297" r="1.3" fill="#6E5527" opacity="0.09" /><circle cx="237.6" cy="1120.5" r="2.05" fill="#C89B3C" opacity="0.11" /><circle cx="637.2" cy="594" r="2.8" fill="#6E5527" opacity="0.13" /><circle cx="1036.8" cy="67.5" r="3.55" fill="#6E5527" opacity="0.07" /><circle cx="356.4" cy="891" r="4.3" fill="#C89B3C" opacity="0.09" /><circle cx="756" cy="364.5" r="1.3" fill="#6E5527" opacity="0.11" /><circle cx="75.6" cy="1188" r="2.05" fill="#6E5527" opacity="0.13" /><circle cx="475.2" cy="661.5" r="2.8" fill="#C89B3C" opacity="0.07" /><circle cx="874.8" cy="135" r="3.55" fill="#6E5527" opacity="0.09" /></g><rect x="0" y="0" width="1080" height="1350" fill="#1E1A16" opacity="0.08" /><rect x="0" y="0" width="1080" height="1350" fill="url(#renderer2-vignette-4)" /><rect x="0" y="0" width="1080" height="1350" fill="none" stroke="#4E4029" stroke-width="2" opacity="0.24" /><metadata>{&quot;theme&quot;:&quot;luxury&quot;,&quot;texture&quot;:&quot;dark silk with soft metallic grain&quot;,&quot;gradient&quot;:&quot;deep charcoal to warm gold edge glow&quot;,&quot;lighting&quot;:&quot;dramatic&quot;,&quot;overlay&quot;:&quot;low-opacity gold wash&quot;,&quot;atmosphere&quot;:&quot;exclusive and refined&quot;}</metadata></g><g data-product-position="close-up"><ellipse cx="539.5" cy="862.73" rx="75.1" ry="31.3" fill="#00000066" opacity="0.14" /><ellipse cx="551.5" cy="658" rx="90.91" ry="160.96" fill="#C89B3C" opacity="0.18" filter="url(#renderer2-product-glow-8)" /><g transform="translate(12 -8) rotate(0 539.5 666) skewX(-3)" filter="url(#renderer2-product-shadow-7)"><rect x="447.08" y="448.84" width="184.83" height="434.31" rx="12.85" fill="none" stroke="#4E4029" stroke-width="1" opacity="0.24" /><rect x="440.68" y="442.44" width="197.64" height="447.12" rx="15.81" fill="#1E1A16" opacity="0.52" /><path d="M 476.26 719.65 C 507.88 567.63, 575.08 567.63, 602.74 719.65" stroke="#C89B3C" stroke-width="3" fill="none" opacity="0.5" /><text x="539.5" y="666" text-anchor="middle" dominant-baseline="middle" font-family="Inter" font-size="18" fill="#B9AB92">Product Image</text></g></g><text x="237" y="831.57" text-anchor="start" font-family="Playfair Display" font-size="42.57" font-weight="600" fill="#F6E8C8" letter-spacing="0.2" paint-order="stroke" stroke="#F6E8C8" stroke-width="0"><tspan x="237" dy="0">Gold Diamond</tspan><tspan x="237" dy="47.68">Necklace</tspan></text><text x="237" y="978.75" text-anchor="start" font-family="Inter" font-size="16" font-weight="400" fill="#B9AB92"><tspan x="237" dy="0">A renderer v2 sample using luxury,</tspan><tspan x="237" dy="18.88">luxury, and luxury.</tspan></text><text x="237" y="985.66" text-anchor="start" font-family="Inter" font-size="18.4" font-weight="600" fill="#C89B3C" letter-spacing="0.07"><tspan x="237" dy="0">$129</tspan></text><g data-cta="Shop Now"><rect x="237" y="1017" width="227" height="50" rx="25" fill="#00000066" opacity="0.16" /><rect x="237" y="1009" width="227" height="50" rx="25" fill="#C89B3C" stroke="#4E4029" stroke-width="1" /><rect x="239" y="1011" width="223" height="21" rx="23" fill="#11100E" opacity="0.1" /><text x="350.5" y="1034" text-anchor="middle" dominant-baseline="middle" font-family="Inter" font-size="16" font-weight="600" fill="#11100E">Shop Now</text></g><g opacity="0.42" data-decoration="luxury" data-layering="stacked"><g data-decoration-region="0" data-placement="frame"><rect x="22" y="22" width="243" height="310" fill="none" stroke="#6E5527" stroke-width="1.46" rx="11.66" opacity="0.32" /><rect x="27.83" y="27.83" width="231.34" height="298.34" fill="none" stroke="#C89B3C" stroke-width="1.46" rx="11.66" opacity="0.68" /><rect x="30.75" y="30.75" width="225.5" height="292.5" fill="none" stroke="#F6E8C8" stroke-width="1.09" rx="8.75" opacity="0.42" /></g><g data-decoration-region="1" data-placement="frame"><rect x="815" y="22" width="243" height="310" fill="none" stroke="#6E5527" stroke-width="1.46" rx="11.66" opacity="0.32" /><rect x="820.83" y="27.83" width="231.34" height="298.34" fill="none" stroke="#C89B3C" stroke-width="1.46" rx="11.66" opacity="0.68" /><rect x="823.75" y="30.75" width="225.5" height="292.5" fill="none" stroke="#F6E8C8" stroke-width="1.09" rx="8.75" opacity="0.42" /></g><g data-decoration-region="2" data-placement="frame"><rect x="22" y="1018" width="243" height="310" fill="none" stroke="#6E5527" stroke-width="1.46" rx="11.66" opacity="0.32" /><rect x="27.83" y="1023.83" width="231.34" height="298.34" fill="none" stroke="#C89B3C" stroke-width="1.46" rx="11.66" opacity="0.68" /><rect x="30.75" y="1026.75" width="225.5" height="292.5" fill="none" stroke="#F6E8C8" stroke-width="1.09" rx="8.75" opacity="0.42" /></g><g data-decoration-region="3" data-placement="frame"><rect x="815" y="1018" width="243" height="310" fill="none" stroke="#6E5527" stroke-width="1.46" rx="11.66" opacity="0.32" /><rect x="820.83" y="1023.83" width="231.34" height="298.34" fill="none" stroke="#C89B3C" stroke-width="1.46" rx="11.66" opacity="0.68" /><rect x="823.75" y="1026.75" width="225.5" height="292.5" fill="none" stroke="#F6E8C8" stroke-width="1.09" rx="8.75" opacity="0.42" /></g></g></svg>