<svg xmlns="http://www.w3.org/2000/svg"width="1080"height="1350"viewBox="0 0 1080 1350"role="img"><defs><linearGradient id="renderer2-bg-1" x1="0%" y1="0%" x2="100%" y2="100%"><stop offset="0%" stop-color="#F2ECE8" /><stop offset="55%" stop-color="#FFFBF8" /><stop offset="100%" stop-color="#F2ECE8" /></linearGradient><radialGradient id="renderer2-light-2" cx="68%" cy="28%" r="70%"><stop offset="0%" stop-color="#D7A0AE" stop-opacity="0.42" /><stop offset="100%" stop-color="#F2ECE8" stop-opacity="0" /></radialGradient><clipPath id="renderer2-product-clip-3"><rect x="239" y="286" width="602" height="743" rx="24.08" /></clipPath><filter id="renderer2-product-shadow-4" x="-40%" y="-40%" width="180%" height="190%"><feDropShadow dx="0" dy="29.72" stdDeviation="21.07" flood-color="#000000" flood-opacity="0.28" /></filter></defs><rect x="0" y="0" width="1080" height="1350" fill="url(#renderer2-bg-1)" /><rect x="0" y="0" width="1080" height="1350" fill="url(#renderer2-light-2)" opacity="0.58" /><rect x="0" y="0" width="1080" height="1350" fill="#D7A0AE" opacity="0.09" /><rect x="0" y="0" width="1080" height="1350" fill="none" stroke="#DECFC8" stroke-width="2" opacity="0.32" /><rect x="0" y="0" width="1080" height="1350" fill="#000000" opacity="0.13" /><metadata>{&quot;theme&quot;:&quot;editorial&quot;,&quot;texture&quot;:&quot;paper grain with composed negative space&quot;,&quot;gradient&quot;:&quot;warm off-white to soft graphite edge&quot;,&quot;lighting&quot;:&quot;diffused&quot;,&quot;overlay&quot;:&quot;magazine-style tonal wash&quot;,&quot;atmosphere&quot;:&quot;art-directed magazine spread&quot;}</metadata><g opacity="0.34" data-decoration="fashion"><circle cx="223.57" cy="395.25" r="15.95" fill="#B21F4A" /><circle cx="350.14" cy="668.5" r="21.26" fill="#D7A0AE" /><circle cx="476.71" cy="941.75" r="26.58" fill="#B21F4A" /><circle cx="603.29" cy="122" r="15.95" fill="#D7A0AE" /><circle cx="729.86" cy="395.25" r="21.26" fill="#B21F4A" /><circle cx="856.43" cy="668.5" r="26.58" fill="#D7A0AE" /></g><g transform="rotate(0 540 657.5)" filter="url(#renderer2-product-shadow-4)"><rect x="239" y="286" width="602" height="743" rx="20" fill="#FFFBF8" opacity="0.42" /><text x="540" y="657.5" text-anchor="middle" dominant-baseline="middle" font-family="Inter" font-size="27.09" fill="#7D6A64">Product Image</text></g><text x="97" y="626" text-anchor="start" font-family="Bodoni 72" font-size="56" font-weight="700" fill="#171313"><tspan x="97" dy="0">TAILORED LINEN BLAZER</tspan></text><text x="97" y="797" text-anchor="start" font-family="Inter" font-size="16" font-weight="400" fill="#7D6A64"><tspan x="97" dy="0">A renderer v2 sample using editorial,</tspan><tspan x="97" dy="18.88">fashion, and fashion.</tspan></text><text x="97" y="1053.4" text-anchor="start" font-family="Inter" font-size="18.4" font-weight="700" fill="#B21F4A"><tspan x="97" dy="0">$129</tspan></text><rect x="97" y="1133" width="372" height="82" rx="28" fill="#171313" stroke="#DECFC8" stroke-width="1" /><text x="283" y="1174" text-anchor="middle" dominant-baseline="middle" font-family="Inter" font-size="16" font-weight="700" fill="#FFFFFF">Shop Now</text></svg>