<svg xmlns="http://www.w3.org/2000/svg"width="1080"height="1920"viewBox="0 0 1080 1920"role="img"><defs><linearGradient id="renderer2-bg-1" x1="0%" y1="0%" x2="100%" y2="100%"><stop offset="0%" stop-color="#101820" /><stop offset="55%" stop-color="#1A2733" /><stop offset="100%" stop-color="#101820" /></linearGradient><radialGradient id="renderer2-light-2" cx="68%" cy="28%" r="70%"><stop offset="0%" stop-color="#2D78FF" stop-opacity="0.42" /><stop offset="100%" stop-color="#101820" stop-opacity="0" /></radialGradient><clipPath id="renderer2-product-clip-3"><rect x="545" y="386" width="554" height="960" rx="22.16" /></clipPath><filter id="renderer2-product-shadow-4" x="-40%" y="-40%" width="180%" height="190%"><feDropShadow dx="0" dy="38.4" stdDeviation="19.39" flood-color="#000000" flood-opacity="0.28" /></filter></defs><rect x="0" y="0" width="1080" height="1920" fill="url(#renderer2-bg-1)" /><rect x="0" y="0" width="1080" height="1920" fill="url(#renderer2-light-2)" opacity="0.7" /><rect x="0" y="0" width="1080" height="1920" fill="#2D78FF" opacity="0.11" /><rect x="0" y="0" width="1080" height="1920" fill="none" stroke="#304454" stroke-width="2" opacity="0.32" /><rect x="0" y="0" width="1080" height="1920" fill="#000000" opacity="0.28" /><metadata>{&quot;theme&quot;:&quot;sports&quot;,&quot;texture&quot;:&quot;motion streaks and granular court grit&quot;,&quot;gradient&quot;:&quot;deep navy to electric action color&quot;,&quot;lighting&quot;:&quot;rim&quot;,&quot;overlay&quot;:&quot;speed-line energy overlay&quot;,&quot;atmosphere&quot;:&quot;fast and competitive&quot;}</metadata><g opacity="0.48" data-decoration="sports"><path d="M 702 224.4 L 994 173" stroke="#FF4F1F" stroke-width="5.26" stroke-linecap="round" fill="none" /><path d="M 702 275.8 L 994 173" stroke="#2D78FF" stroke-width="5.26" stroke-linecap="round" fill="none" /><path d="M 702 327.2 L 994 183.28" stroke="#FF4F1F" stroke-width="5.26" stroke-linecap="round" fill="none" /><path d="M 702 378.6 L 994 234.68" stroke="#2D78FF" stroke-width="5.26" stroke-linecap="round" fill="none" /><path d="M 702 430 L 994 286.08" stroke="#FF4F1F" stroke-width="5.26" stroke-linecap="round" fill="none" /><path d="M 702 481.4 L 994 337.48" stroke="#2D78FF" stroke-width="5.26" stroke-linecap="round" fill="none" /><path d="M 702 532.8 L 994 388.88" stroke="#FF4F1F" stroke-width="5.26" stroke-linecap="round" fill="none" /><path d="M 702 584.2 L 994 440.28" stroke="#2D78FF" stroke-width="5.26" stroke-linecap="round" fill="none" /><path d="M 702 635.6 L 994 491.68" stroke="#FF4F1F" stroke-width="5.26" stroke-linecap="round" fill="none" /></g><g opacity="0.48" data-decoration="sports"><path d="M 394 754.4 L 686 703" stroke="#FF4F1F" stroke-width="5.26" stroke-linecap="round" fill="none" /><path d="M 394 805.8 L 686 703" stroke="#2D78FF" stroke-width="5.26" stroke-linecap="round" fill="none" /><path d="M 394 857.2 L 686 713.28" stroke="#FF4F1F" stroke-width="5.26" stroke-linecap="round" fill="none" /><path d="M 394 908.6 L 686 764.68" stroke="#2D78FF" stroke-width="5.26" stroke-linecap="round" fill="none" /><path d="M 394 960 L 686 816.08" stroke="#FF4F1F" stroke-width="5.26" stroke-linecap="round" fill="none" /><path d="M 394 1011.4 L 686 867.48" stroke="#2D78FF" stroke-width="5.26" stroke-linecap="round" fill="none" /><path d="M 394 1062.8 L 686 918.88" stroke="#FF4F1F" stroke-width="5.26" stroke-linecap="round" fill="none" /><path d="M 394 1114.2 L 686 970.28" stroke="#2D78FF" stroke-width="5.26" stroke-linecap="round" fill="none" /><path d="M 394 1165.6 L 686 1021.68" stroke="#FF4F1F" stroke-width="5.26" stroke-linecap="round" fill="none" /></g><g opacity="0.48" data-decoration="sports"><path d="M 86 1284.4 L 378 1233" stroke="#FF4F1F" stroke-width="5.26" stroke-linecap="round" fill="none" /><path d="M 86 1335.8 L 378 1233" stroke="#2D78FF" stroke-width="5.26" stroke-linecap="round" fill="none" /><path d="M 86 1387.2 L 378 1243.28" stroke="#FF4F1F" stroke-width="5.26" stroke-linecap="round" fill="none" /><path d="M 86 1438.6 L 378 1294.68" stroke="#2D78FF" stroke-width="5.26" stroke-linecap="round" fill="none" /><path d="M 86 1490 L 378 1346.08" stroke="#FF4F1F" stroke-width="5.26" stroke-linecap="round" fill="none" /><path d="M 86 1541.4 L 378 1397.48" stroke="#2D78FF" stroke-width="5.26" stroke-linecap="round" fill="none" /><path d="M 86 1592.8 L 378 1448.88" stroke="#FF4F1F" stroke-width="5.26" stroke-linecap="round" fill="none" /><path d="M 86 1644.2 L 378 1500.28" stroke="#2D78FF" stroke-width="5.26" stroke-linecap="round" fill="none" /><path d="M 86 1695.6 L 378 1551.68" stroke="#FF4F1F" stroke-width="5.26" stroke-linecap="round" fill="none" /></g><g transform="rotate(-4 822 866)" filter="url(#renderer2-product-shadow-4)"><rect x="545" y="386" width="554" height="960" rx="20" fill="#1A2733" opacity="0.42" /><text x="822" y="866" text-anchor="middle" dominant-baseline="middle" font-family="Barlow" font-size="24.93" fill="#AAB8C2">Product Image</text></g><text x="86" y="233" text-anchor="start" font-family="Oswald" font-size="60" font-weight="800" fill="#F8FF2E"><tspan x="86" dy="0">TRAINING WATER BOTTLE</tspan></text><text x="86" y="492" text-anchor="start" font-family="Barlow" font-size="16" font-weight="400" fill="#AAB8C2"><tspan x="86" dy="0">A renderer v2 sample using</tspan><tspan x="86" dy="18.88">diagonal, sport, and sport.</tspan></text><text x="86" y="1505.4" text-anchor="start" font-family="Oswald" font-size="18.4" font-weight="800" fill="#FF4F1F"><tspan x="86" dy="0">$129</tspan></text><rect x="86" y="1629" width="381" height="118" rx="28" fill="#F8FF2E" stroke="#304454" stroke-width="1" /><text x="276.5" y="1688" text-anchor="middle" dominant-baseline="middle" font-family="Oswald" font-size="16" font-weight="800" fill="#101820">Shop Now</text></svg>