<svg xmlns="http://www.w3.org/2000/svg" width="1080" height="1350" viewBox="0 0 1080 1350" role="img"><defs><linearGradient id="renderer2-bg-1" x1="0%" y1="0%" x2="100%" y2="100%"><stop offset="0%" stop-color="#FBF0E3" /><stop offset="48%" stop-color="#FFF8EF" /><stop offset="100%" stop-color="#FBF0E3" /></linearGradient><linearGradient id="renderer2-depth-2" x1="0%" y1="100%" x2="100%" y2="0%"><stop offset="0%" stop-color="#3B241629" stop-opacity="0.22" /><stop offset="52%" stop-color="#E9B78D" stop-opacity="0.08" /><stop offset="100%" stop-color="#C76B3C" stop-opacity="0.16" /></linearGradient><radialGradient id="renderer2-light-3" cx="28%" cy="28%" r="68%"><stop offset="0%" stop-color="#E9B78D" stop-opacity="0.46" /><stop offset="56%" stop-color="#FFF8EF" stop-opacity="0.12" /><stop offset="100%" stop-color="#FBF0E3" stop-opacity="0" /></radialGradient><radialGradient id="renderer2-vignette-4" cx="50%" cy="50%" r="74%"><stop offset="45%" stop-color="#000000" stop-opacity="0" /><stop offset="100%" stop-color="#3B241629" stop-opacity="0.18" /></radialGradient><pattern id="renderer2-texture-5" width="48" height="48" patternUnits="userSpaceOnUse"><path d="M0 47 L48 1 M-12 12 L12 -12 M36 60 L60 36" stroke="#E7CDB7" stroke-width="1" opacity="0.07" /><circle cx="11" cy="17" r="1.2" fill="#E9B78D" opacity="0.06" /><circle cx="35" cy="31" r="0.9" fill="#C76B3C" opacity="0.05" /></pattern><mask id="renderer2-decoration-mask-6" maskUnits="userSpaceOnUse"><rect x="162" y="201" width="675" height="930" fill="#ffffff" /><rect x="209" y="409" width="663" height="640" rx="32" fill="#000000" /><rect x="138" y="177" width="577" height="161" rx="24" fill="#000000" /><rect x="138" y="302" width="577" height="98" rx="24" fill="#000000" /><rect x="138" y="1059" width="214" height="96" rx="24" fill="#000000" /><rect x="320" y="1059" width="260" height="96" rx="24" fill="#000000" /></mask><clipPath id="renderer2-product-clip-7"><rect x="259" y="459" width="564" height="541" rx="21.64" /></clipPath><filter id="renderer2-product-shadow-8" x="-30%" y="-30%" width="160%" height="160%"><feDropShadow dx="0" dy="13.53" stdDeviation="14.1" flood-color="#3B241629" flood-opacity="0.25" /></filter><filter id="renderer2-product-glow-9" x="-40%" y="-40%" width="180%" height="180%"><feGaussianBlur stdDeviation="16.92" result="blur" /><feColorMatrix in="blur" type="matrix" values="0 0 0 0 0.78 0 0 0 0 0.42 0 0 0 0 0.235 0 0 0 0.28 0" /></filter><linearGradient id="renderer2-product-reflection-10" x1="0%" y1="0%" x2="0%" y2="100%"><stop offset="0%" stop-color="#C76B3C" stop-opacity="0.18" /><stop offset="100%" stop-color="#FBF0E3" stop-opacity="0" /></linearGradient></defs><g data-editor-layer="true" data-layer-id="background" data-layer-type="background" data-layer-label="Background" data-layer-x="0" data-layer-y="0" data-layer-width="1080" data-layer-height="1350" > <g data-background="coffee"><rect x="0" y="0" width="1080" height="1350" fill="url(#renderer2-bg-1)" /><rect x="0" y="0" width="1080" height="1350" fill="url(#renderer2-depth-2)" opacity="0.52" /><ellipse cx="272.7" cy="428.63" rx="359.1" ry="102.94" fill="#E9B78D" opacity="0.04" /><ellipse cx="885.6" cy="614.25" rx="405" ry="111.38" fill="#C76B3C" opacity="0.05" /><ellipse cx="364.5" cy="799.88" rx="450.9" ry="119.81" fill="#E9B78D" opacity="0.06" /><rect x="0" y="0" width="1080" height="1350" fill="url(#renderer2-light-3)" opacity="0.63" /><rect x="0" y="0" width="1080" height="1350" fill="url(#renderer2-texture-5)" opacity="0.18" /><g data-background-particles="cozy morning ritual"><circle cx="0" cy="229.5" r="1.3" fill="#C76B3C" opacity="0.07" /><circle cx="399.6" cy="1053" r="2.05" fill="#E9B78D" opacity="0.09" /><circle cx="799.2" cy="526.5" r="2.8" fill="#E9B78D" opacity="0.11" /><circle cx="118.8" cy="0" r="3.55" fill="#C76B3C" opacity="0.13" /><circle cx="518.4" cy="823.5" r="4.3" fill="#E9B78D" opacity="0.07" /><circle cx="918" cy="297" r="1.3" fill="#E9B78D" opacity="0.09" /><circle cx="237.6" cy="1120.5" r="2.05" fill="#C76B3C" opacity="0.11" /><circle cx="637.2" cy="594" r="2.8" fill="#E9B78D" opacity="0.13" /><circle cx="1036.8" cy="67.5" r="3.55" fill="#E9B78D" opacity="0.07" /><circle cx="356.4" cy="891" r="4.3" fill="#C76B3C" opacity="0.09" /><circle cx="756" cy="364.5" r="1.3" fill="#E9B78D" opacity="0.11" /><circle cx="75.6" cy="1188" r="2.05" fill="#E9B78D" opacity="0.13" /><circle cx="475.2" cy="661.5" r="2.8" fill="#C76B3C" opacity="0.07" /><circle cx="874.8" cy="135" r="3.55" fill="#E9B78D" opacity="0.09" /></g><rect x="0" y="0" width="1080" height="1350" fill="#FFF8EF" opacity="0.06" /><rect x="0" y="0" width="1080" height="1350" fill="url(#renderer2-vignette-4)" /><rect x="0" y="0" width="1080" height="1350" fill="none" stroke="#E7CDB7" stroke-width="2" opacity="0.24" /><metadata>{&quot;theme&quot;:&quot;coffee&quot;,&quot;texture&quot;:&quot;warm ceramic, wood, and coffee crema&quot;,&quot;gradient&quot;:&quot;cream to roasted brown ambient wash&quot;,&quot;lighting&quot;:&quot;golden&quot;,&quot;overlay&quot;:&quot;soft steam haze&quot;,&quot;atmosphere&quot;:&quot;cozy morning ritual&quot;}</metadata></g> </g><g data-editor-layer="true" data-layer-id="decorations" data-layer-type="decoration" data-layer-label="Decorations" data-layer-x="244" data-layer-y="444" data-layer-width="593" data-layer-height="570" > <g opacity="0.19" data-decoration="coffee" data-layering="stacked" mask="url(#renderer2-decoration-mask-6)"><g data-decoration-region="0" data-placement="around-product"><ellipse cx="540.5" cy="732" rx="290.57" ry="216.6" fill="none" stroke="#E9B78D" stroke-width="2.28" opacity="0.09" /><circle cx="819.08" cy="735.16" r="5.47" fill="#E9B78D" opacity="0.16" /><circle cx="393.97" cy="903.55" r="7.75" fill="#E9B78D" opacity="0.16" /><circle cx="408.45" cy="548.29" r="5.47" fill="#E9B78D" opacity="0.16" /><ellipse cx="540.5" cy="729" rx="290.57" ry="216.6" fill="none" stroke="#C76B3C" stroke-width="2.28" opacity="0.15" /><circle cx="819.21" cy="729" r="5.47" fill="#C76B3C" opacity="0.28" /><circle cx="401.15" cy="906.71" r="7.75" fill="#E9B78D" opacity="0.28" /><circle cx="401.14" cy="551.29" r="5.47" fill="#C76B3C" opacity="0.28" /></g></g> </g><g data-editor-layer="true" data-layer-id="product_image" data-layer-type="product_image" data-layer-label="Product Image" data-layer-x="253" data-layer-y="453" data-layer-width="575" data-layer-height="552" > <g data-product-position="lifestyle"><ellipse cx="541" cy="983.77" rx="203.04" ry="21.64" fill="#3B241629" opacity="0.17" /><g filter="url(#renderer2-product-shadow-8)"><rect x="259" y="459" width="564" height="541" rx="32.46" fill="#FFF8EF" opacity="0.88" /><circle cx="541" cy="697.04" r="108.2" fill="#C76B3C" opacity="0.16" /><path d="M 439.48 794.42 C 495.88 664.58, 586.12 664.58, 642.52 794.42" stroke="#C76B3C" stroke-width="6.77" stroke-linecap="round" fill="none" opacity="0.85" /><text x="541" y="859.34" text-anchor="middle" dominant-baseline="middle" font-family="Libre Baskerville" font-size="23.69" font-weight="600" fill="#3B2416">Single Origin Coffee</text></g></g> </g><g data-editor-layer="true" data-layer-id="headline" data-layer-type="headline" data-layer-label="Headline" data-layer-x="162" data-layer-y="201" data-layer-width="529" data-layer-height="113" > <text x="162" y="248" text-anchor="start" font-family="Libre Baskerville" font-size="49" font-weight="700" fill="#3B2416" paint-order="stroke" stroke="#3B2416" stroke-width="0"><tspan x="162" dy="0">Single Origin Coffee</tspan></text> </g><g data-editor-layer="true" data-layer-id="description" data-layer-type="description" data-layer-label="Description" data-layer-x="162" data-layer-y="326" data-layer-width="529" data-layer-height="50" > <text x="162" y="339" text-anchor="start" font-family="Source Serif 4" font-size="14" font-weight="400" fill="#8B6A55"><tspan x="162" dy="0">Portrait production-quality Renderer V2</tspan><tspan x="162" dy="16.52">sample using editorial, editorial, warm, and</tspan><tspan x="162" dy="16.52">coffee.</tspan></text> </g><g data-editor-layer="true" data-layer-id="price" data-layer-type="price" data-layer-label="Price" data-layer-x="162" data-layer-y="1083" data-layer-width="166" data-layer-height="48" > <text x="162" y="1114" text-anchor="start" font-family="Inter" font-size="23" font-weight="700" fill="#C76B3C"><tspan x="162" dy="0">$24</tspan></text> </g><g data-editor-layer="true" data-layer-id="cta" data-layer-type="cta" data-layer-label="CTA" data-layer-x="344" data-layer-y="1083" data-layer-width="212" data-layer-height="48" > <g data-cta="Shop Now"><rect x="344" y="1087.5" width="138" height="45" rx="22.5" fill="#3B241629" opacity="0.14" /><rect x="344" y="1085" width="138" height="45" rx="22.5" fill="#3B2416" stroke="#E7CDB7" stroke-width="1" opacity="1" /><rect x="346" y="1086" width="134" height="17.1" rx="20.5" fill="#FFF8EF" opacity="0.09" /><text x="413" y="1107.5" text-anchor="middle" dominant-baseline="central" font-family="Inter" font-size="16" font-weight="700" fill="#FFF8EF" letter-spacing="0.5">Shop Now</text></g> </g></svg>