<svg xmlns="http://www.w3.org/2000/svg" width="1350" height="1080" viewBox="0 0 1350 1080" role="img"><defs><linearGradient id="renderer2-bg-1" x1="0%" y1="0%" x2="100%" y2="100%"><stop offset="0%" stop-color="#FBF0E3" /><stop offset="48%" stop-color="#FFF8EF" /><stop offset="100%" stop-color="#FBF0E3" /></linearGradient><linearGradient id="renderer2-depth-2" x1="0%" y1="100%" x2="100%" y2="0%"><stop offset="0%" stop-color="#3B241629" stop-opacity="0.22" /><stop offset="52%" stop-color="#E9B78D" stop-opacity="0.08" /><stop offset="100%" stop-color="#C76B3C" stop-opacity="0.16" /></linearGradient><radialGradient id="renderer2-light-3" cx="28%" cy="28%" r="68%"><stop offset="0%" stop-color="#E9B78D" stop-opacity="0.46" /><stop offset="56%" stop-color="#FFF8EF" stop-opacity="0.12" /><stop offset="100%" stop-color="#FBF0E3" stop-opacity="0" /></radialGradient><radialGradient id="renderer2-vignette-4" cx="50%" cy="50%" r="74%"><stop offset="45%" stop-color="#000000" stop-opacity="0" /><stop offset="100%" stop-color="#3B241629" stop-opacity="0.16" /></radialGradient><pattern id="renderer2-texture-5" width="48" height="48" patternUnits="userSpaceOnUse"><path d="M0 47 L48 1 M-12 12 L12 -12 M36 60 L60 36" stroke="#E7CDB7" stroke-width="1" opacity="0.07" /><circle cx="11" cy="17" r="1.2" fill="#E9B78D" opacity="0.06" /><circle cx="35" cy="31" r="0.9" fill="#C76B3C" opacity="0.05" /></pattern><mask id="renderer2-decoration-mask-6" maskUnits="userSpaceOnUse"><rect x="147" y="140" width="965" height="786" fill="#ffffff" /><rect x="208" y="307" width="935" height="577" rx="32" fill="#000000" /><rect x="123" y="116" width="787" height="161" rx="24" fill="#000000" /><rect x="123" y="241" width="787" height="98" rx="24" fill="#000000" /><rect x="123" y="854" width="228" height="96" rx="24" fill="#000000" /><rect x="319" y="854" width="268" height="96" rx="24" fill="#000000" /></mask><clipPath id="renderer2-product-clip-7"><rect x="257" y="352" width="838" height="487" rx="19.48" /></clipPath><filter id="renderer2-product-shadow-8" x="-30%" y="-30%" width="160%" height="160%"><feDropShadow dx="0" dy="12.18" stdDeviation="20.95" flood-color="#3B241629" flood-opacity="0.25" /></filter><filter id="renderer2-product-glow-9" x="-40%" y="-40%" width="180%" height="180%"><feGaussianBlur stdDeviation="25.14" result="blur" /><feColorMatrix in="blur" type="matrix" values="0 0 0 0 0.78 0 0 0 0 0.42 0 0 0 0 0.235 0 0 0 0.28 0" /></filter><linearGradient id="renderer2-product-reflection-10" x1="0%" y1="0%" x2="0%" y2="100%"><stop offset="0%" stop-color="#C76B3C" stop-opacity="0.18" /><stop offset="100%" stop-color="#FBF0E3" stop-opacity="0" /></linearGradient></defs><g data-editor-layer="true" data-layer-id="background" data-layer-type="background" data-layer-label="Background" data-layer-x="0" data-layer-y="0" data-layer-width="1350" data-layer-height="1080" > <g data-background="coffee"><rect x="0" y="0" width="1350" height="1080" fill="url(#renderer2-bg-1)" /><rect x="0" y="0" width="1350" height="1080" fill="url(#renderer2-depth-2)" opacity="0.52" /><ellipse cx="340.87" cy="342.9" rx="448.87" ry="82.35" fill="#E9B78D" opacity="0.04" /><ellipse cx="1107" cy="491.4" rx="506.25" ry="89.1" fill="#C76B3C" opacity="0.05" /><ellipse cx="455.63" cy="639.9" rx="563.63" ry="95.85" fill="#E9B78D" opacity="0.06" /><rect x="0" y="0" width="1350" height="1080" fill="url(#renderer2-light-3)" opacity="0.65" /><rect x="0" y="0" width="1350" height="1080" fill="url(#renderer2-texture-5)" opacity="0.18" /><g data-background-particles="cozy morning ritual"><circle cx="0" cy="183.6" r="1.3" fill="#C76B3C" opacity="0.1" /><circle cx="499.5" cy="842.4" r="2.05" fill="#E9B78D" opacity="0.13" /><circle cx="999" cy="421.2" r="2.8" fill="#E9B78D" opacity="0.15" /><circle cx="148.5" cy="0" r="3.55" fill="#C76B3C" opacity="0.18" /><circle cx="648" cy="658.8" r="4.3" fill="#E9B78D" opacity="0.1" /><circle cx="1147.5" cy="237.6" r="1.3" fill="#E9B78D" opacity="0.13" /><circle cx="297" cy="896.4" r="2.05" fill="#C76B3C" opacity="0.15" /><circle cx="796.5" cy="475.2" r="2.8" fill="#E9B78D" opacity="0.18" /><circle cx="1296" cy="54" r="3.55" fill="#E9B78D" opacity="0.1" /><circle cx="445.5" cy="712.8" r="4.3" fill="#C76B3C" opacity="0.13" /><circle cx="945" cy="291.6" r="1.3" fill="#E9B78D" opacity="0.15" /><circle cx="94.5" cy="950.4" r="2.05" fill="#E9B78D" opacity="0.18" /><circle cx="594" cy="529.2" r="2.8" fill="#C76B3C" opacity="0.1" /><circle cx="1093.5" cy="108" r="3.55" fill="#E9B78D" opacity="0.13" /></g><rect x="0" y="0" width="1350" height="1080" fill="#FFF8EF" opacity="0.06" /><rect x="0" y="0" width="1350" height="1080" fill="url(#renderer2-vignette-4)" /><rect x="0" y="0" width="1350" height="1080" fill="none" stroke="#E7CDB7" stroke-width="2" opacity="0.24" /><metadata>{&quot;theme&quot;:&quot;coffee&quot;,&quot;texture&quot;:&quot;warm ceramic, wood, and coffee crema&quot;,&quot;gradient&quot;:&quot;cream to roasted brown ambient wash&quot;,&quot;lighting&quot;:&quot;golden&quot;,&quot;overlay&quot;:&quot;soft steam haze&quot;,&quot;atmosphere&quot;:&quot;cozy morning ritual&quot;}</metadata></g> </g><g data-editor-layer="true" data-layer-id="decorations" data-layer-type="decoration" data-layer-label="Decorations" data-layer-x="239" data-layer-y="338" data-layer-width="873" data-layer-height="515" > <g opacity="0.19" data-decoration="coffee" data-layering="stacked" mask="url(#renderer2-decoration-mask-6)"><g data-decoration-region="0" data-placement="around-product"><ellipse cx="675.5" cy="598.5" rx="427.77" ry="195.7" fill="none" stroke="#E9B78D" stroke-width="2.06" opacity="0.09" /><circle cx="1085.63" cy="601.06" r="4.94" fill="#E9B78D" opacity="0.16" /><circle cx="459.78" cy="753.21" r="7" fill="#E9B78D" opacity="0.16" /><circle cx="481.1" cy="432.23" r="4.94" fill="#E9B78D" opacity="0.16" /><ellipse cx="675.5" cy="595.5" rx="427.77" ry="195.7" fill="none" stroke="#C76B3C" stroke-width="2.06" opacity="0.15" /><circle cx="1085.81" cy="595.5" r="4.94" fill="#C76B3C" opacity="0.28" /><circle cx="470.35" cy="756.06" r="7" fill="#E9B78D" opacity="0.28" /><circle cx="470.34" cy="434.94" r="4.94" fill="#C76B3C" opacity="0.28" /></g></g> </g><g data-editor-layer="true" data-layer-id="product_image" data-layer-type="product_image" data-layer-label="Product Image" data-layer-x="248" data-layer-y="347" data-layer-width="855" data-layer-height="497" > <g data-product-position="lifestyle"><ellipse cx="676" cy="824.39" rx="301.68" ry="19.48" fill="#3B241629" opacity="0.17" /><g filter="url(#renderer2-product-shadow-8)"><rect x="257" y="352" width="838" height="487" rx="29.22" fill="#FFF8EF" opacity="0.88" /><circle cx="676" cy="566.28" r="97.4" fill="#C76B3C" opacity="0.16" /><path d="M 525.16 653.94 C 608.96 537.06, 743.04 537.06, 826.84 653.94" stroke="#C76B3C" stroke-width="10.06" stroke-linecap="round" fill="none" opacity="0.85" /><text x="676" y="712.38" text-anchor="middle" dominant-baseline="middle" font-family="Libre Baskerville" font-size="35.2" font-weight="600" fill="#3B2416">Single Origin Coffee</text></g></g> </g><g data-editor-layer="true" data-layer-id="headline" data-layer-type="headline" data-layer-label="Headline" data-layer-x="147" data-layer-y="140" data-layer-width="739" data-layer-height="113" > <text x="147" y="191" text-anchor="start" font-family="Libre Baskerville" font-size="54" font-weight="700" fill="#3B2416" paint-order="stroke" stroke="#3B2416" stroke-width="0"><tspan x="147" dy="0">Single Origin Coffee</tspan></text> </g><g data-editor-layer="true" data-layer-id="description" data-layer-type="description" data-layer-label="Description" data-layer-x="147" data-layer-y="265" data-layer-width="739" data-layer-height="50" > <text x="147" y="278" text-anchor="start" font-family="Source Serif 4" font-size="14" font-weight="400" fill="#8B6A55"><tspan x="147" dy="0">Landscape production-quality Renderer V2</tspan><tspan x="147" dy="16.52">sample using editorial, editorial, warm, and</tspan><tspan x="147" dy="16.52">coffee.</tspan></text> </g><g data-editor-layer="true" data-layer-id="price" data-layer-type="price" data-layer-label="Price" data-layer-x="147" data-layer-y="878" data-layer-width="180" data-layer-height="48" > <text x="147" y="909" text-anchor="start" font-family="Inter" font-size="23" font-weight="700" fill="#C76B3C"><tspan x="147" dy="0">$24</tspan></text> </g><g data-editor-layer="true" data-layer-id="cta" data-layer-type="cta" data-layer-label="CTA" data-layer-x="343" data-layer-y="878" data-layer-width="220" data-layer-height="48" > <g data-cta="Shop Now"><rect x="343" y="882.5" width="143" height="45" rx="22.5" fill="#3B241629" opacity="0.14" /><rect x="343" y="880" width="143" height="45" rx="22.5" fill="#3B2416" stroke="#E7CDB7" stroke-width="1" opacity="1" /><rect x="345" y="881" width="139" height="17.1" rx="20.5" fill="#FFF8EF" opacity="0.09" /><text x="414.5" y="902.5" text-anchor="middle" dominant-baseline="central" font-family="Inter" font-size="16" font-weight="700" fill="#FFF8EF" letter-spacing="0.5">Shop Now</text></g> </g></svg>