<svg xmlns="http://www.w3.org/2000/svg" width="1080" height="1920" viewBox="0 0 1080 1920" role="img"><defs><linearGradient id="renderer2-bg-1" x1="0%" y1="0%" x2="100%" y2="100%"><stop offset="0%" stop-color="#FBF0E3" /><stop offset="48%" stop-color="#FFF8EF" /><stop offset="100%" stop-color="#FBF0E3" /></linearGradient><linearGradient id="renderer2-depth-2" x1="0%" y1="100%" x2="100%" y2="0%"><stop offset="0%" stop-color="#3B241629" stop-opacity="0.22" /><stop offset="52%" stop-color="#E9B78D" stop-opacity="0.08" /><stop offset="100%" stop-color="#C76B3C" stop-opacity="0.16" /></linearGradient><radialGradient id="renderer2-light-3" cx="28%" cy="28%" r="68%"><stop offset="0%" stop-color="#E9B78D" stop-opacity="0.46" /><stop offset="56%" stop-color="#FFF8EF" stop-opacity="0.12" /><stop offset="100%" stop-color="#FBF0E3" stop-opacity="0" /></radialGradient><radialGradient id="renderer2-vignette-4" cx="50%" cy="50%" r="74%"><stop offset="45%" stop-color="#000000" stop-opacity="0" /><stop offset="100%" stop-color="#3B241629" stop-opacity="0.24" /></radialGradient><pattern id="renderer2-texture-5" width="48" height="48" patternUnits="userSpaceOnUse"><path d="M0 47 L48 1 M-12 12 L12 -12 M36 60 L60 36" stroke="#E7CDB7" stroke-width="1" opacity="0.07" /><circle cx="11" cy="17" r="1.2" fill="#E9B78D" opacity="0.06" /><circle cx="35" cy="31" r="0.9" fill="#C76B3C" opacity="0.05" /></pattern><mask id="renderer2-decoration-mask-6" maskUnits="userSpaceOnUse"><rect x="231" y="276.77" width="433" height="892.23" fill="#ffffff" /><rect x="449" y="309.77" width="182" height="364" rx="8" fill="#000000" /><rect x="223" y="705" width="362" height="203.92" rx="8" fill="#000000" /><rect x="223" y="945.57" width="362" height="32.48" rx="8" fill="#000000" /><rect x="223" y="998.5" width="265" height="57" rx="8" fill="#000000" /><rect x="223" y="1080" width="265" height="97" rx="8" fill="#000000" /></mask><clipPath id="renderer2-product-clip-7"><rect x="455.34" y="314.29" width="169.32" height="354.96" rx="9.31" /></clipPath><filter id="renderer2-product-shadow-8" x="-55%" y="-55%" width="210%" height="220%"><feDropShadow dx="0" dy="14.2" stdDeviation="5.42" flood-color="#3B241629" flood-opacity="0.26" /></filter><filter id="renderer2-product-glow-9" x="-70%" y="-70%" width="240%" height="240%"><feGaussianBlur stdDeviation="8" result="blur" /><feColorMatrix in="blur" type="matrix" values="0 0 0 0 0.78 0 0 0 0 0.42 0 0 0 0 0.235 0 0 0 0.49 0" /></filter><linearGradient id="renderer2-product-reflection-10" x1="0%" y1="0%" x2="0%" y2="100%"><stop offset="0%" stop-color="#FFF8EF" stop-opacity="0.24" /><stop offset="100%" stop-color="#FFF8EF" stop-opacity="0" /></linearGradient></defs><g data-background="coffee"><rect x="0" y="0" width="1080" height="1920" fill="url(#renderer2-bg-1)" /><rect x="0" y="0" width="1080" height="1920" fill="url(#renderer2-depth-2)" opacity="0.52" /><ellipse cx="272.7" cy="609.6" rx="359.1" ry="146.4" fill="#E9B78D" opacity="0.04" /><ellipse cx="885.6" cy="873.6" rx="405" ry="158.4" fill="#C76B3C" opacity="0.05" /><ellipse cx="364.5" cy="1137.6" rx="450.9" ry="170.4" fill="#E9B78D" opacity="0.06" /><rect x="0" y="0" width="1080" height="1920" fill="url(#renderer2-light-3)" opacity="0.65" /><rect x="0" y="0" width="1080" height="1920" fill="url(#renderer2-texture-5)" opacity="0.18" /><g data-background-particles="cozy morning ritual"><circle cx="0" cy="326.4" r="1.3" fill="#C76B3C" opacity="0.1" /><circle cx="399.6" cy="1497.6" r="2.05" fill="#E9B78D" opacity="0.13" /><circle cx="799.2" cy="748.8" r="2.8" fill="#E9B78D" opacity="0.15" /><circle cx="118.8" cy="0" r="3.55" fill="#C76B3C" opacity="0.18" /><circle cx="518.4" cy="1171.2" r="4.3" fill="#E9B78D" opacity="0.1" /><circle cx="918" cy="422.4" r="1.3" fill="#E9B78D" opacity="0.13" /><circle cx="237.6" cy="1593.6" r="2.05" fill="#C76B3C" opacity="0.15" /><circle cx="637.2" cy="844.8" r="2.8" fill="#E9B78D" opacity="0.18" /><circle cx="1036.8" cy="96" r="3.55" fill="#E9B78D" opacity="0.1" /><circle cx="356.4" cy="1267.2" r="4.3" fill="#C76B3C" opacity="0.13" /><circle cx="756" cy="518.4" r="1.3" fill="#E9B78D" opacity="0.15" /><circle cx="75.6" cy="1689.6" r="2.05" fill="#E9B78D" opacity="0.18" /><circle cx="475.2" cy="940.8" r="2.8" fill="#C76B3C" opacity="0.1" /><circle cx="874.8" cy="192" r="3.55" fill="#E9B78D" opacity="0.13" /></g><rect x="0" y="0" width="1080" height="1920" fill="#FFF8EF" opacity="0.06" /><rect x="0" y="0" width="1080" height="1920" fill="url(#renderer2-vignette-4)" /><rect x="0" y="0" width="1080" height="1920" fill="none" stroke="#E7CDB7" stroke-width="2" opacity="0.24" /><metadata>{&quot;theme&quot;:&quot;coffee&quot;,&quot;texture&quot;:&quot;warm ceramic, wood, and coffee crema&quot;,&quot;gradient&quot;:&quot;cream to roasted brown ambient wash&quot;,&quot;lighting&quot;:&quot;golden&quot;,&quot;overlay&quot;:&quot;soft steam haze&quot;,&quot;atmosphere&quot;:&quot;cozy morning ritual&quot;}</metadata></g><g opacity="0.32" data-decoration="coffee" data-layering="stacked" mask="url(#renderer2-decoration-mask-6)"><g data-decoration-region="0" data-placement="around-product"><ellipse cx="540" cy="496.27" rx="121.52" ry="163.4" fill="none" stroke="#E9B78D" stroke-width="1.49" opacity="0.18" /><circle cx="656.44" cy="498.74" r="3.57" fill="#E9B78D" opacity="0.32" /><circle cx="593.68" cy="629.18" r="5.06" fill="#E9B78D" opacity="0.32" /><circle cx="477.24" cy="622.22" r="3.57" fill="#E9B78D" opacity="0.32" /><circle cx="423.56" cy="484.81" r="5.06" fill="#E9B78D" opacity="0.32" /><circle cx="486.32" cy="354.37" r="3.57" fill="#E9B78D" opacity="0.32" /><circle cx="602.76" cy="361.33" r="5.06" fill="#E9B78D" opacity="0.32" /><ellipse cx="540" cy="491.77" rx="121.52" ry="163.4" fill="none" stroke="#C76B3C" stroke-width="1.49" opacity="0.37" /><circle cx="656.56" cy="491.77" r="3.57" fill="#C76B3C" opacity="0.68" /><circle cx="598.28" cy="625.84" r="5.06" fill="#E9B78D" opacity="0.68" /><circle cx="481.72" cy="625.84" r="3.57" fill="#C76B3C" opacity="0.68" /><circle cx="423.44" cy="491.77" r="5.06" fill="#E9B78D" opacity="0.68" /><circle cx="481.72" cy="357.71" r="3.57" fill="#C76B3C" opacity="0.68" /><circle cx="598.28" cy="357.71" r="5.06" fill="#E9B78D" opacity="0.68" /><ellipse cx="540" cy="484.77" rx="121.52" ry="163.4" fill="none" stroke="#3B2416" stroke-width="1.12" opacity="0.23" /><circle cx="656.27" cy="480.95" r="2.68" fill="#3B2416" opacity="0.42" /><circle cx="488.92" cy="630.92" r="3.79" fill="#E9B78D" opacity="0.42" /><circle cx="474.8" cy="363.46" r="2.68" fill="#3B2416" opacity="0.42" /></g></g><g data-product-position="lifestyle"><ellipse cx="540" cy="647.96" rx="64.34" ry="24.85" fill="#3B241629" opacity="0.14" /><g transform="translate(2 -1) rotate(0 540 491.77) skewX(-0.5)" filter="url(#renderer2-product-shadow-8)"><rect x="461.15" y="320.1" width="157.7" height="343.34" rx="11.01" fill="none" stroke="#E7CDB7" stroke-width="1" opacity="0.24" /><rect x="455.34" y="314.29" width="169.32" height="354.96" rx="13.55" fill="#FFF8EF" opacity="0.68" /><path d="M 485.82 534.37 C 512.91 413.68, 570.48 413.68, 594.18 534.37" stroke="#C76B3C" stroke-width="4" fill="none" opacity="0.72" /><text x="540" y="491.77" text-anchor="middle" dominant-baseline="middle" font-family="Source Serif 4" font-size="18" fill="#8B6A55">Product Image</text></g></g><text x="231" y="767" text-anchor="start" font-family="Libre Baskerville" font-size="54" font-weight="700" fill="#3B2416" paint-order="stroke" stroke="#3B2416" stroke-width="0"><tspan x="231" dy="0">Single</tspan><tspan x="231" dy="62.64">Origin</tspan><tspan x="231" dy="62.64">Coffee</tspan></text><text x="231" y="965.57" text-anchor="start" font-family="Source Serif 4" font-size="12" font-weight="400" fill="#8B6A55"><tspan x="231" dy="0">Instagram Story production-quality Renderer</tspan></text><text x="231" y="1045.55" text-anchor="start" font-family="Inter" font-size="19.55" font-weight="700" fill="#C76B3C"><tspan x="231" dy="0">$24</tspan></text><g data-cta="Shop Now"><rect x="231" y="1100.96" width="249" height="81" rx="28" fill="#3B241629" opacity="0.16" /><rect x="231" y="1088" width="249" height="81" rx="28" fill="#3B2416" stroke="#E7CDB7" stroke-width="1" opacity="1" /><rect x="233" y="1090" width="245" height="34.02" rx="26" fill="#FFF8EF" opacity="0.1" /><text x="355.5" y="1128.5" text-anchor="middle" dominant-baseline="middle" font-family="Inter" font-size="17" font-weight="700" fill="#FFF8EF">Shop Now</text></g></svg>