<svg xmlns="http://www.w3.org/2000/svg" width="1080" height="1920" viewBox="0 0 1080 1920" role="img"><defs><linearGradient id="renderer2-bg-1" x1="0%" y1="0%" x2="100%" y2="100%"><stop offset="0%" stop-color="#08111F" /><stop offset="48%" stop-color="#101C2F" /><stop offset="100%" stop-color="#08111F" /></linearGradient><linearGradient id="renderer2-depth-2" x1="0%" y1="100%" x2="100%" y2="0%"><stop offset="0%" stop-color="#00000070" stop-opacity="0.22" /><stop offset="52%" stop-color="#245D8C" stop-opacity="0.08" /><stop offset="100%" stop-color="#38D5FF" stop-opacity="0.16" /></linearGradient><radialGradient id="renderer2-light-3" cx="72%" cy="28%" r="68%"><stop offset="0%" stop-color="#245D8C" stop-opacity="0.46" /><stop offset="56%" stop-color="#101C2F" stop-opacity="0.12" /><stop offset="100%" stop-color="#08111F" stop-opacity="0" /></radialGradient><radialGradient id="renderer2-vignette-4" cx="50%" cy="50%" r="74%"><stop offset="45%" stop-color="#000000" stop-opacity="0" /><stop offset="100%" stop-color="#00000070" stop-opacity="0.2" /></radialGradient><pattern id="renderer2-texture-5" width="48" height="48" patternUnits="userSpaceOnUse"><path d="M0 47 L48 1 M-12 12 L12 -12 M36 60 L60 36" stroke="#1F3E5C" stroke-width="1" opacity="0.05" /><circle cx="11" cy="17" r="1.2" fill="#245D8C" opacity="0.04" /><circle cx="35" cy="31" r="0.9" fill="#38D5FF" opacity="0.03" /></pattern><mask id="renderer2-decoration-mask-6" maskUnits="userSpaceOnUse"><rect x="22.75" y="22.75" width="1034.5" height="1874.5" fill="#ffffff" /><rect x="484" y="801" width="113" height="277" rx="8" fill="#000000" /><rect x="373" y="1111" width="335" height="197.44" rx="8" fill="#000000" /><rect x="418" y="1366.5" width="246" height="57" rx="8" fill="#000000" /><rect x="418" y="1440" width="246" height="97" rx="8" fill="#000000" /></mask><clipPath id="renderer2-product-clip-7"><rect x="492.02" y="809.05" width="96.96" height="260.9" rx="5.33" /></clipPath><filter id="renderer2-product-shadow-8" x="-55%" y="-55%" width="210%" height="220%"></filter><filter id="renderer2-product-glow-9" x="-70%" y="-70%" width="240%" height="240%"><feGaussianBlur stdDeviation="8" result="blur" /><feColorMatrix in="blur" type="matrix" values="0 0 0 0 0.22 0 0 0 0 0.835 0 0 0 0 1 0 0 0 0.49 0" /></filter><linearGradient id="renderer2-product-reflection-10" x1="0%" y1="0%" x2="0%" y2="100%"><stop offset="0%" stop-color="#08111F" stop-opacity="0.24" /><stop offset="100%" stop-color="#08111F" stop-opacity="0" /></linearGradient></defs><g data-background="glass"><rect x="0" y="0" width="1080" height="1920" fill="url(#renderer2-bg-1)" /><rect x="0" y="0" width="1080" height="1920" fill="url(#renderer2-depth-2)" opacity="0.52" /><ellipse cx="272.7" cy="609.6" rx="359.1" ry="146.4" fill="#245D8C" opacity="0.04" /><ellipse cx="885.6" cy="873.6" rx="405" ry="158.4" fill="#38D5FF" opacity="0.05" /><ellipse cx="364.5" cy="1137.6" rx="450.9" ry="170.4" fill="#245D8C" opacity="0.06" /><rect x="0" y="0" width="1080" height="1920" fill="url(#renderer2-light-3)" opacity="0.74" /><rect x="0" y="0" width="1080" height="1920" fill="url(#renderer2-texture-5)" opacity="0.18" /><g data-background-particles="sleek connected device space"><circle cx="0" cy="326.4" r="1.3" fill="#38D5FF" opacity="0.07" /><circle cx="399.6" cy="1497.6" r="2.05" fill="#245D8C" opacity="0.09" /><circle cx="799.2" cy="748.8" r="2.8" fill="#245D8C" opacity="0.11" /><circle cx="118.8" cy="0" r="3.55" fill="#38D5FF" opacity="0.13" /><circle cx="518.4" cy="1171.2" r="4.3" fill="#245D8C" opacity="0.07" /><circle cx="918" cy="422.4" r="1.3" fill="#245D8C" opacity="0.09" /><circle cx="237.6" cy="1593.6" r="2.05" fill="#38D5FF" opacity="0.11" /><circle cx="637.2" cy="844.8" r="2.8" fill="#245D8C" opacity="0.13" /><circle cx="1036.8" cy="96" r="3.55" fill="#245D8C" opacity="0.07" /><circle cx="356.4" cy="1267.2" r="4.3" fill="#38D5FF" opacity="0.09" /><circle cx="756" cy="518.4" r="1.3" fill="#245D8C" opacity="0.11" /><circle cx="75.6" cy="1689.6" r="2.05" fill="#245D8C" opacity="0.13" /><circle cx="475.2" cy="940.8" r="2.8" fill="#38D5FF" opacity="0.07" /><circle cx="874.8" cy="192" r="3.55" fill="#245D8C" opacity="0.09" /></g><rect x="0" y="0" width="1080" height="1920" fill="#101C2F" opacity="0.08" /><rect x="0" y="0" width="1080" height="1920" fill="url(#renderer2-vignette-4)" /><rect x="0" y="0" width="1080" height="1920" fill="none" stroke="#1F3E5C" stroke-width="2" opacity="0.24" /><metadata>{&quot;theme&quot;:&quot;glass&quot;,&quot;texture&quot;:&quot;translucent panels with soft reflections&quot;,&quot;gradient&quot;:&quot;cool blue graphite radial glow&quot;,&quot;lighting&quot;:&quot;rim&quot;,&quot;overlay&quot;:&quot;frosted glass highlight&quot;,&quot;atmosphere&quot;:&quot;sleek connected device space&quot;}</metadata></g><g opacity="0.36" data-decoration="technology" data-layering="interwoven" mask="url(#renderer2-decoration-mask-6)"><g data-decoration-region="0" data-placement="background"><circle cx="177.74" cy="390.45" r="14.9" fill="#245D8C" opacity="0.32" /><circle cx="325.52" cy="765.35" r="21.1" fill="#245D8C" opacity="0.32" /><circle cx="473.31" cy="1140.25" r="27.31" fill="#245D8C" opacity="0.32" /><circle cx="621.09" cy="1515.15" r="14.9" fill="#245D8C" opacity="0.32" /><circle cx="768.88" cy="15.55" r="21.1" fill="#245D8C" opacity="0.32" /><circle cx="916.66" cy="390.45" r="27.31" fill="#245D8C" opacity="0.32" /><circle cx="170.54" cy="397.65" r="14.9" fill="#38D5FF" opacity="0.68" /><circle cx="318.32" cy="772.55" r="21.1" fill="#38D5FF" opacity="0.68" /><circle cx="466.11" cy="1147.45" r="27.31" fill="#38D5FF" opacity="0.68" /><circle cx="613.89" cy="1522.35" r="14.9" fill="#38D5FF" opacity="0.68" /><circle cx="761.68" cy="22.75" r="21.1" fill="#38D5FF" opacity="0.68" /><circle cx="909.46" cy="397.65" r="27.31" fill="#38D5FF" opacity="0.68" /><circle cx="270.18" cy="408.85" r="11.17" fill="#EAF6FF" opacity="0.42" /><circle cx="528.8" cy="783.75" r="15.83" fill="#EAF6FF" opacity="0.42" /><circle cx="787.42" cy="1158.65" r="20.48" fill="#EAF6FF" opacity="0.42" /></g></g><g data-product-position="minimal"><g transform="translate(0 0) rotate(0 540.5 939.5) skewX(0)" filter="url(#renderer2-product-shadow-8)"><rect x="495.41" y="812.45" width="90.17" height="254.11" rx="6.3" fill="none" stroke="#1F3E5C" stroke-width="1" opacity="0.24" /><rect x="492.02" y="809.05" width="96.96" height="260.9" rx="7.76" fill="#101C2F" opacity="0.68" /><path d="M 509.47 970.81 C 524.99 882.1, 557.95 882.1, 571.53 970.81" stroke="#38D5FF" stroke-width="4" fill="none" opacity="0.72" /><text x="540.5" y="939.5" text-anchor="middle" dominant-baseline="middle" font-family="IBM Plex Sans" font-size="18" fill="#7F9AB8">Product Image</text></g></g><text x="540.5" y="1170.45" text-anchor="middle" font-family="Space Grotesk" font-size="51.45" font-weight="700" fill="#EAF6FF" paint-order="stroke" stroke="#EAF6FF" stroke-width="0"><tspan x="540.5" dy="0">Wireless</tspan><tspan x="540.5" dy="57.63">Earbuds</tspan></text><text x="541" y="1413.66" text-anchor="middle" font-family="Space Grotesk" font-size="18.4" font-weight="700" fill="#38D5FF"><tspan x="541" dy="0">$159</tspan></text><g data-cta="Shop Now"><rect x="426" y="1460.96" width="230" height="81" rx="28" fill="#00000070" opacity="0.16" /><rect x="426" y="1448" width="230" height="81" rx="28" fill="#38D5FF" stroke="#1F3E5C" stroke-width="1" opacity="1" /><rect x="428" y="1450" width="226" height="34.02" rx="26" fill="#08111F" opacity="0.1" /><text x="541" y="1488.5" text-anchor="middle" dominant-baseline="middle" font-family="Space Grotesk" font-size="16" font-weight="700" fill="#08111F">Shop Now</text></g></svg>