<svg xmlns="http://www.w3.org/2000/svg" width="1350" height="1080" viewBox="0 0 1350 1080" role="img"><defs><linearGradient id="renderer2-bg-1" x1="0%" y1="0%" x2="100%" y2="100%"><stop offset="0%" stop-color="#F2ECE8" /><stop offset="48%" stop-color="#FFFBF8" /><stop offset="100%" stop-color="#F2ECE8" /></linearGradient><linearGradient id="renderer2-depth-2" x1="0%" y1="100%" x2="100%" y2="0%"><stop offset="0%" stop-color="#17131324" stop-opacity="0.22" /><stop offset="52%" stop-color="#D7A0AE" stop-opacity="0.08" /><stop offset="100%" stop-color="#B21F4A" stop-opacity="0.16" /></linearGradient><radialGradient id="renderer2-light-3" cx="58%" cy="28%" r="68%"><stop offset="0%" stop-color="#D7A0AE" stop-opacity="0.34" /><stop offset="56%" stop-color="#FFFBF8" stop-opacity="0.12" /><stop offset="100%" stop-color="#F2ECE8" stop-opacity="0" /></radialGradient><radialGradient id="renderer2-vignette-4" cx="50%" cy="50%" r="74%"><stop offset="45%" stop-color="#000000" stop-opacity="0" /><stop offset="100%" stop-color="#17131324" stop-opacity="0.13" /></radialGradient><pattern id="renderer2-texture-5" width="48" height="48" patternUnits="userSpaceOnUse"><path d="M0 47 L48 1 M-12 12 L12 -12 M36 60 L60 36" stroke="#DECFC8" stroke-width="1" opacity="0.1" /><circle cx="11" cy="17" r="1.2" fill="#D7A0AE" opacity="0.08" /><circle cx="35" cy="31" r="0.9" fill="#B21F4A" opacity="0.07" /></pattern><mask id="renderer2-decoration-mask-6" maskUnits="userSpaceOnUse"><rect x="28.35" y="28.35" width="1293.3" height="1023.3" fill="#ffffff" /><rect x="772.99" y="365.76" width="249.48" height="338.48" rx="9.24" fill="#000000" /><rect x="202" y="383" width="425" height="172.06" rx="8" fill="#000000" /><rect x="202" y="509.5" width="310" height="57" rx="8" fill="#000000" /><rect x="202" y="591" width="310" height="97" rx="8" fill="#000000" /></mask><clipPath id="renderer2-product-clip-7"><rect x="772.99" y="362.2" width="249.48" height="345.6" rx="13.72" /></clipPath><filter id="renderer2-product-shadow-8" x="-55%" y="-55%" width="210%" height="220%"><feDropShadow dx="0" dy="13.82" stdDeviation="7.98" flood-color="#17131324" flood-opacity="0.26" /></filter><filter id="renderer2-product-glow-9" x="-70%" y="-70%" width="240%" height="240%"><feGaussianBlur stdDeviation="11.23" result="blur" /><feColorMatrix in="blur" type="matrix" values="0 0 0 0 0.698 0 0 0 0 0.122 0 0 0 0 0.29 0 0 0 0.49 0" /></filter><linearGradient id="renderer2-product-reflection-10" x1="0%" y1="0%" x2="0%" y2="100%"><stop offset="0%" stop-color="#FFFFFF" stop-opacity="0.24" /><stop offset="100%" stop-color="#FFFFFF" stop-opacity="0" /></linearGradient></defs><g data-background="editorial"><rect x="0" y="0" width="1350" height="1080" fill="url(#renderer2-bg-1)" /><rect x="0" y="0" width="1350" height="1080" fill="url(#renderer2-depth-2)" opacity="0.36" /><ellipse cx="360" cy="392.4" rx="468" ry="84.6" fill="#D7A0AE" opacity="0.04" /><ellipse cx="1111.5" cy="590.4" rx="544.5" ry="93.6" fill="#B21F4A" opacity="0.05" /><rect x="0" y="0" width="1350" height="1080" fill="url(#renderer2-light-3)" opacity="0.62" /><rect x="0" y="0" width="1350" height="1080" fill="url(#renderer2-texture-5)" opacity="0.19" /><g data-background-particles="art-directed magazine spread"><circle cx="0" cy="183.6" r="1.3" fill="#B21F4A" opacity="0.07" /><circle cx="499.5" cy="842.4" r="2.05" fill="#D7A0AE" opacity="0.09" /><circle cx="999" cy="421.2" r="2.8" fill="#D7A0AE" opacity="0.11" /><circle cx="148.5" cy="0" r="3.55" fill="#B21F4A" opacity="0.13" /><circle cx="648" cy="658.8" r="4.3" fill="#D7A0AE" opacity="0.07" /><circle cx="1147.5" cy="237.6" r="1.3" fill="#D7A0AE" opacity="0.09" /><circle cx="297" cy="896.4" r="2.05" fill="#B21F4A" opacity="0.11" /><circle cx="796.5" cy="475.2" r="2.8" fill="#D7A0AE" opacity="0.13" /><circle cx="1296" cy="54" r="3.55" fill="#D7A0AE" opacity="0.07" /><circle cx="445.5" cy="712.8" r="4.3" fill="#B21F4A" opacity="0.09" /><circle cx="945" cy="291.6" r="1.3" fill="#D7A0AE" opacity="0.11" /><circle cx="94.5" cy="950.4" r="2.05" fill="#D7A0AE" opacity="0.13" /><circle cx="594" cy="529.2" r="2.8" fill="#B21F4A" opacity="0.07" /><circle cx="1093.5" cy="108" r="3.55" fill="#D7A0AE" opacity="0.09" /></g><rect x="0" y="0" width="1350" height="1080" fill="#FFFBF8" opacity="0.08" /><rect x="0" y="0" width="1350" height="1080" fill="url(#renderer2-vignette-4)" /><rect x="0" y="0" width="1350" height="1080" fill="none" stroke="#DECFC8" stroke-width="2" opacity="0.24" /><metadata>{&quot;theme&quot;:&quot;editorial&quot;,&quot;texture&quot;:&quot;paper grain with composed negative space&quot;,&quot;gradient&quot;:&quot;warm off-white to soft graphite edge&quot;,&quot;lighting&quot;:&quot;diffused&quot;,&quot;overlay&quot;:&quot;magazine-style tonal wash&quot;,&quot;atmosphere&quot;:&quot;art-directed magazine spread&quot;}</metadata></g><g opacity="0.34" data-decoration="fashion" data-layering="stacked" mask="url(#renderer2-decoration-mask-6)"><g data-decoration-region="0" data-placement="full-composition"><path d="M 32.85 212.54 C 390.47 110.21, 959.53 110.21, 1317.15 212.54" stroke="#D7A0AE" stroke-width="6.14" fill="none" opacity="0.32" /><path d="M 32.85 867.46 C 390.47 969.79, 959.53 969.79, 1317.15 867.46" stroke="#D7A0AE" stroke-width="6.14" fill="none" opacity="0.21" /><rect x="200.83" y="200.26" width="24.56" height="24.56" rx="6.14" fill="#D7A0AE" opacity="0.32" /><rect x="385.58" y="855.18" width="24.56" height="24.56" rx="6.14" fill="#D7A0AE" opacity="0.32" /><rect x="570.34" y="200.26" width="24.56" height="24.56" rx="6.14" fill="#D7A0AE" opacity="0.32" /><rect x="755.1" y="855.18" width="24.56" height="24.56" rx="6.14" fill="#D7A0AE" opacity="0.32" /><rect x="939.86" y="200.26" width="24.56" height="24.56" rx="6.14" fill="#D7A0AE" opacity="0.32" /><rect x="1124.61" y="855.18" width="24.56" height="24.56" rx="6.14" fill="#D7A0AE" opacity="0.32" /><path d="M 28.35 212.54 C 390.47 110.21, 959.53 110.21, 1321.65 212.54" stroke="#B21F4A" stroke-width="6.14" fill="none" opacity="0.68" /><path d="M 28.35 867.46 C 390.47 969.79, 959.53 969.79, 1321.65 867.46" stroke="#D7A0AE" stroke-width="6.14" fill="none" opacity="0.44" /><rect x="200.83" y="200.26" width="24.56" height="24.56" rx="6.14" fill="#B21F4A" opacity="0.68" /><rect x="385.58" y="855.18" width="24.56" height="24.56" rx="6.14" fill="#B21F4A" opacity="0.68" /><rect x="570.34" y="200.26" width="24.56" height="24.56" rx="6.14" fill="#B21F4A" opacity="0.68" /><rect x="755.1" y="855.18" width="24.56" height="24.56" rx="6.14" fill="#B21F4A" opacity="0.68" /><rect x="939.86" y="200.26" width="24.56" height="24.56" rx="6.14" fill="#B21F4A" opacity="0.68" /><rect x="1124.61" y="855.18" width="24.56" height="24.56" rx="6.14" fill="#B21F4A" opacity="0.68" /><path d="M 21.35 212.54 C 390.47 110.21, 959.53 110.21, 1328.65 212.54" stroke="#171313" stroke-width="4.6" fill="none" opacity="0.42" /><path d="M 21.35 867.46 C 390.47 969.79, 959.53 969.79, 1328.65 867.46" stroke="#D7A0AE" stroke-width="4.6" fill="none" opacity="0.27" /><rect x="342.47" y="203.33" width="18.42" height="18.42" rx="4.6" fill="#171313" opacity="0.42" /><rect x="665.79" y="858.25" width="18.42" height="18.42" rx="4.6" fill="#171313" opacity="0.42" /><rect x="989.12" y="203.33" width="18.42" height="18.42" rx="4.6" fill="#171313" opacity="0.42" /></g></g><g data-product-position="center-focus"><ellipse cx="897.73" cy="687.06" rx="94.8" ry="24.19" fill="#17131324" opacity="0.14" /><g transform="translate(4 -2) rotate(0 897.73 535) skewX(-1)" filter="url(#renderer2-product-shadow-8)"><rect x="781.07" y="370.28" width="233.31" height="329.43" rx="16.22" fill="none" stroke="#DECFC8" stroke-width="1" opacity="0.24" /><rect x="772.99" y="362.2" width="249.48" height="345.6" rx="19.96" fill="#FFFBF8" opacity="0.68" /><path d="M 817.89 576.47 C 857.81 458.97, 942.63 458.97, 977.56 576.47" stroke="#B21F4A" stroke-width="4" fill="none" opacity="0.72" /><text x="897.73" y="535" text-anchor="middle" dominant-baseline="middle" font-family="Inter" font-size="18" fill="#7D6A64">Product Image</text></g></g><text x="210" y="451" text-anchor="start" font-family="Bodoni 72" font-size="60" font-weight="700" fill="#171313" letter-spacing="0.1" paint-order="stroke" stroke="#171313" stroke-width="0"><tspan x="210" dy="0">TAILORED</tspan><tspan x="210" dy="63.6">LINEN BLAZER</tspan></text><text x="210" y="556.66" text-anchor="start" font-family="Inter" font-size="18.4" font-weight="700" fill="#B21F4A" letter-spacing="0.03"><tspan x="210" dy="0">$210</tspan></text><g data-cta="Shop Now"><rect x="210" y="611.96" width="294" height="81" rx="28" fill="#17131324" opacity="0.16" /><rect x="210" y="599" width="294" height="81" rx="28" fill="#171313" stroke="#DECFC8" stroke-width="1" opacity="1" /><rect x="212" y="601" width="290" height="34.02" rx="26" fill="#FFFFFF" opacity="0.1" /><text x="357" y="639.5" text-anchor="middle" dominant-baseline="middle" font-family="Inter" font-size="16" font-weight="700" fill="#FFFFFF">Shop Now</text></g></svg>