<svg xmlns="http://www.w3.org/2000/svg" width="1080" height="1350" viewBox="0 0 1080 1350" role="img"><defs><linearGradient id="renderer2-bg-1" x1="0%" y1="0%" x2="100%" y2="100%"><stop offset="0%" stop-color="#11100E" /><stop offset="48%" stop-color="#1E1A16" /><stop offset="100%" stop-color="#11100E" /></linearGradient><linearGradient id="renderer2-depth-2" x1="0%" y1="100%" x2="100%" y2="0%"><stop offset="0%" stop-color="#00000066" stop-opacity="0.22" /><stop offset="52%" stop-color="#6E5527" stop-opacity="0.08" /><stop offset="100%" stop-color="#C89B3C" stop-opacity="0.16" /></linearGradient><radialGradient id="renderer2-light-3" cx="58%" cy="28%" r="68%"><stop offset="0%" stop-color="#6E5527" stop-opacity="0.52" /><stop offset="56%" stop-color="#1E1A16" stop-opacity="0.12" /><stop offset="100%" stop-color="#11100E" stop-opacity="0" /></radialGradient><radialGradient id="renderer2-vignette-4" cx="50%" cy="50%" r="74%"><stop offset="45%" stop-color="#000000" stop-opacity="0" /><stop offset="100%" stop-color="#00000066" stop-opacity="0.33" /></radialGradient><pattern id="renderer2-texture-5" width="48" height="48" patternUnits="userSpaceOnUse"><path d="M0 47 L48 1 M-12 12 L12 -12 M36 60 L60 36" stroke="#4E4029" stroke-width="1" opacity="0.1" /><circle cx="11" cy="17" r="1.2" fill="#6E5527" opacity="0.08" /><circle cx="35" cy="31" r="0.9" fill="#C89B3C" opacity="0.07" /></pattern><mask id="renderer2-decoration-mask-6" maskUnits="userSpaceOnUse"><rect x="22" y="22" width="1036" height="1306" fill="#ffffff" /><rect x="434.5" y="303.85" width="211" height="428" rx="8" fill="#000000" /><rect x="240" y="777" width="308" height="158.02" rx="8" fill="#000000" /><rect x="240" y="891" width="226" height="57" rx="8" fill="#000000" /><rect x="240" y="959" width="226" height="97" rx="8" fill="#000000" /></mask><clipPath id="renderer2-product-clip-7"><rect x="426.28" y="277.57" width="227.45" height="480.56" rx="12.51" /></clipPath><filter id="renderer2-product-shadow-8" x="-55%" y="-55%" width="210%" height="220%"><feDropShadow dx="0" dy="19.22" stdDeviation="7.28" flood-color="#00000066" flood-opacity="0.26" /></filter><filter id="renderer2-product-glow-9" x="-70%" y="-70%" width="240%" height="240%"><feGaussianBlur stdDeviation="10.24" result="blur" /><feColorMatrix in="blur" type="matrix" values="0 0 0 0 0.784 0 0 0 0 0.608 0 0 0 0 0.235 0 0 0 0.49 0" /></filter><linearGradient id="renderer2-product-reflection-10" x1="0%" y1="0%" x2="0%" y2="100%"><stop offset="0%" stop-color="#11100E" stop-opacity="0.24" /><stop offset="100%" stop-color="#11100E" stop-opacity="0" /></linearGradient></defs><g data-background="luxury"><rect x="0" y="0" width="1080" height="1350" fill="url(#renderer2-bg-1)" /><rect x="0" y="0" width="1080" height="1350" fill="url(#renderer2-depth-2)" opacity="0.7" /><ellipse cx="263.52" cy="391.5" rx="349.92" ry="101.25" fill="#6E5527" opacity="0.04" /><ellipse cx="883.44" cy="540" rx="386.64" ry="108" fill="#C89B3C" opacity="0.05" /><ellipse cx="336.96" cy="688.5" rx="423.36" ry="114.75" fill="#6E5527" opacity="0.05" /><ellipse cx="892.08" cy="837" rx="460.08" ry="121.5" fill="#C89B3C" opacity="0.06" /><rect x="0" y="0" width="1080" height="1350" fill="url(#renderer2-light-3)" opacity="0.62" /><rect x="0" y="0" width="1080" height="1350" fill="url(#renderer2-texture-5)" opacity="0.19" /><g data-background-particles="exclusive and refined"><circle cx="0" cy="229.5" r="1.3" fill="#C89B3C" opacity="0.07" /><circle cx="399.6" cy="1053" r="2.05" fill="#6E5527" opacity="0.09" /><circle cx="799.2" cy="526.5" r="2.8" fill="#6E5527" opacity="0.11" /><circle cx="118.8" cy="0" r="3.55" fill="#C89B3C" opacity="0.13" /><circle cx="518.4" cy="823.5" r="4.3" fill="#6E5527" opacity="0.07" /><circle cx="918" cy="297" r="1.3" fill="#6E5527" opacity="0.09" /><circle cx="237.6" cy="1120.5" r="2.05" fill="#C89B3C" opacity="0.11" /><circle cx="637.2" cy="594" r="2.8" fill="#6E5527" opacity="0.13" /><circle cx="1036.8" cy="67.5" r="3.55" fill="#6E5527" opacity="0.07" /><circle cx="356.4" cy="891" r="4.3" fill="#C89B3C" opacity="0.09" /><circle cx="756" cy="364.5" r="1.3" fill="#6E5527" opacity="0.11" /><circle cx="75.6" cy="1188" r="2.05" fill="#6E5527" opacity="0.13" /><circle cx="475.2" cy="661.5" r="2.8" fill="#C89B3C" opacity="0.07" /><circle cx="874.8" cy="135" r="3.55" fill="#6E5527" opacity="0.09" /></g><rect x="0" y="0" width="1080" height="1350" fill="#1E1A16" opacity="0.08" /><rect x="0" y="0" width="1080" height="1350" fill="url(#renderer2-vignette-4)" /><rect x="0" y="0" width="1080" height="1350" fill="none" stroke="#4E4029" stroke-width="2" opacity="0.24" /><metadata>{&quot;theme&quot;:&quot;luxury&quot;,&quot;texture&quot;:&quot;dark silk with soft metallic grain&quot;,&quot;gradient&quot;:&quot;deep charcoal to warm gold edge glow&quot;,&quot;lighting&quot;:&quot;dramatic&quot;,&quot;overlay&quot;:&quot;low-opacity gold wash&quot;,&quot;atmosphere&quot;:&quot;exclusive and refined&quot;}</metadata></g><g data-product-position="close-up"><ellipse cx="540" cy="729.29" rx="86.43" ry="33.64" fill="#00000066" opacity="0.14" /><ellipse cx="552" cy="509.85" rx="104.63" ry="173" fill="#C89B3C" opacity="0.14" filter="url(#renderer2-product-glow-9)" /><g transform="translate(12 -8) rotate(0 540 517.85) skewX(-3)" filter="url(#renderer2-product-shadow-8)"><rect x="433.1" y="284.4" width="213.8" height="466.91" rx="14.78" fill="none" stroke="#4E4029" stroke-width="1" opacity="0.24" /><rect x="426.28" y="277.57" width="227.45" height="480.56" rx="18.2" fill="#1E1A16" opacity="0.68" /><path d="M 467.22 575.52 C 503.61 412.13, 580.94 412.13, 612.78 575.52" stroke="#C89B3C" stroke-width="4" fill="none" opacity="0.72" /><text x="540" y="517.85" text-anchor="middle" dominant-baseline="middle" font-family="Inter" font-size="18" fill="#B9AB92">Product Image</text></g></g><text x="248" y="830.1" text-anchor="start" font-family="Playfair Display" font-size="45.1" font-weight="600" fill="#F6E8C8" letter-spacing="0.2" paint-order="stroke" stroke="#F6E8C8" stroke-width="0"><tspan x="248" dy="0">Gold Diamond</tspan><tspan x="248" dy="50.51">Necklace</tspan></text><text x="248" y="938.2" text-anchor="start" font-family="Inter" font-size="18" font-weight="600" fill="#C89B3C" letter-spacing="0.07"><tspan x="248" dy="0">$420</tspan></text><g data-cta="Shop Now"><rect x="248" y="979.96" width="210" height="81" rx="28" fill="#00000066" opacity="0.16" /><rect x="248" y="967" width="210" height="81" rx="28" fill="#C89B3C" stroke="#4E4029" stroke-width="1" opacity="1" /><rect x="250" y="969" width="206" height="34.02" rx="26" fill="#11100E" opacity="0.1" /><text x="353" y="1007.5" text-anchor="middle" dominant-baseline="middle" font-family="Inter" font-size="15" font-weight="600" fill="#11100E">Shop Now</text></g><g opacity="0.42" data-decoration="luxury" data-layering="stacked" mask="url(#renderer2-decoration-mask-6)"><g data-decoration-region="0" data-placement="frame"><rect x="22" y="22" width="239" height="306" fill="none" stroke="#6E5527" stroke-width="1.43" rx="11.47" opacity="0.32" /><rect x="27.74" y="27.74" width="227.53" height="294.53" fill="none" stroke="#C89B3C" stroke-width="1.43" rx="11.47" opacity="0.68" /><rect x="30.6" y="30.6" width="221.79" height="288.79" fill="none" stroke="#F6E8C8" stroke-width="1.08" rx="8.6" opacity="0.42" /></g><g data-decoration-region="1" data-placement="frame"><rect x="819" y="22" width="239" height="306" fill="none" stroke="#6E5527" stroke-width="1.43" rx="11.47" opacity="0.32" /><rect x="824.74" y="27.74" width="227.53" height="294.53" fill="none" stroke="#C89B3C" stroke-width="1.43" rx="11.47" opacity="0.68" /><rect x="827.6" y="30.6" width="221.79" height="288.79" fill="none" stroke="#F6E8C8" stroke-width="1.08" rx="8.6" opacity="0.42" /></g><g data-decoration-region="2" data-placement="frame"><rect x="22" y="1022" width="239" height="306" fill="none" stroke="#6E5527" stroke-width="1.43" rx="11.47" opacity="0.32" /><rect x="27.74" y="1027.74" width="227.53" height="294.53" fill="none" stroke="#C89B3C" stroke-width="1.43" rx="11.47" opacity="0.68" /><rect x="30.6" y="1030.6" width="221.79" height="288.79" fill="none" stroke="#F6E8C8" stroke-width="1.08" rx="8.6" opacity="0.42" /></g><g data-decoration-region="3" data-placement="frame"><rect x="819" y="1022" width="239" height="306" fill="none" stroke="#6E5527" stroke-width="1.43" rx="11.47" opacity="0.32" /><rect x="824.74" y="1027.74" width="227.53" height="294.53" fill="none" stroke="#C89B3C" stroke-width="1.43" rx="11.47" opacity="0.68" /><rect x="827.6" y="1030.6" width="221.79" height="288.79" fill="none" stroke="#F6E8C8" stroke-width="1.08" rx="8.6" opacity="0.42" /></g></g></svg>