<svg xmlns="http://www.w3.org/2000/svg" width="1080" height="1920" viewBox="0 0 1080 1920" role="img"><defs><linearGradient id="renderer2-bg-1" x1="0%" y1="0%" x2="100%" y2="100%"><stop offset="0%" stop-color="#11100E" /><stop offset="48%" stop-color="#1E1A16" /><stop offset="100%" stop-color="#11100E" /></linearGradient><linearGradient id="renderer2-depth-2" x1="0%" y1="100%" x2="100%" y2="0%"><stop offset="0%" stop-color="#00000066" stop-opacity="0.22" /><stop offset="52%" stop-color="#6E5527" stop-opacity="0.08" /><stop offset="100%" stop-color="#C89B3C" stop-opacity="0.16" /></linearGradient><radialGradient id="renderer2-light-3" cx="58%" cy="28%" r="68%"><stop offset="0%" stop-color="#6E5527" stop-opacity="0.34" /><stop offset="56%" stop-color="#1E1A16" stop-opacity="0.12" /><stop offset="100%" stop-color="#11100E" stop-opacity="0" /></radialGradient><radialGradient id="renderer2-vignette-4" cx="50%" cy="50%" r="74%"><stop offset="45%" stop-color="#000000" stop-opacity="0" /><stop offset="100%" stop-color="#00000066" stop-opacity="0.24" /></radialGradient><pattern id="renderer2-texture-5" width="48" height="48" patternUnits="userSpaceOnUse"><path d="M0 47 L48 1 M-12 12 L12 -12 M36 60 L60 36" stroke="#4E4029" stroke-width="1" opacity="0.05" /><circle cx="11" cy="17" r="1.2" fill="#6E5527" opacity="0.04" /><circle cx="35" cy="31" r="0.9" fill="#C89B3C" opacity="0.03" /></pattern><mask id="renderer2-decoration-mask-6" maskUnits="userSpaceOnUse"><rect x="16" y="16" width="1048" height="1888" fill="#ffffff" /><rect x="284" y="757" width="513" height="495" rx="32" fill="#000000" /><rect x="166" y="278" width="538" height="170" rx="24" fill="#000000" /><rect x="166" y="412" width="538" height="98" rx="24" fill="#000000" /><rect x="166" y="1501" width="202" height="96" rx="24" fill="#000000" /><rect x="336" y="1501" width="244" height="96" rx="24" fill="#000000" /></mask><clipPath id="renderer2-product-clip-7"><rect x="333" y="806" width="415" height="398" rx="15.92" /></clipPath><filter id="renderer2-product-shadow-8" x="-30%" y="-30%" width="160%" height="160%"><feDropShadow dx="0" dy="11.94" stdDeviation="11.62" flood-color="#00000066" flood-opacity="0.28" /></filter><filter id="renderer2-product-glow-9" x="-40%" y="-40%" width="180%" height="180%"><feGaussianBlur stdDeviation="12.45" result="blur" /><feColorMatrix in="blur" type="matrix" values="0 0 0 0 0.784 0 0 0 0 0.608 0 0 0 0 0.235 0 0 0 0.28 0" /></filter><linearGradient id="renderer2-product-reflection-10" x1="0%" y1="0%" x2="0%" y2="100%"><stop offset="0%" stop-color="#C89B3C" stop-opacity="0.18" /><stop offset="100%" stop-color="#11100E" stop-opacity="0" /></linearGradient></defs><g data-editor-layer="true" data-layer-id="background" data-layer-type="background" data-layer-label="Background" data-layer-x="0" data-layer-y="0" data-layer-width="1080" data-layer-height="1920" > <g data-background="marble"><rect x="0" y="0" width="1080" height="1920" fill="url(#renderer2-bg-1)" /><rect x="0" y="0" width="1080" height="1920" fill="url(#renderer2-depth-2)" opacity="0.52" /><ellipse cx="272.7" cy="609.6" rx="359.1" ry="146.4" fill="#6E5527" opacity="0.04" /><ellipse cx="885.6" cy="873.6" rx="405" ry="158.4" fill="#C89B3C" opacity="0.05" /><ellipse cx="364.5" cy="1137.6" rx="450.9" ry="170.4" fill="#6E5527" opacity="0.06" /><rect x="0" y="0" width="1080" height="1920" fill="url(#renderer2-light-3)" opacity="0.62" /><rect x="0" y="0" width="1080" height="1920" fill="url(#renderer2-texture-5)" opacity="0.18" /><g data-background-particles="polished fragrance counter"><circle cx="0" cy="326.4" r="1.3" fill="#C89B3C" opacity="0.1" /><circle cx="399.6" cy="1497.6" r="2.05" fill="#6E5527" opacity="0.13" /><circle cx="799.2" cy="748.8" r="2.8" fill="#6E5527" opacity="0.15" /><circle cx="118.8" cy="0" r="3.55" fill="#C89B3C" opacity="0.18" /><circle cx="518.4" cy="1171.2" r="4.3" fill="#6E5527" opacity="0.1" /><circle cx="918" cy="422.4" r="1.3" fill="#6E5527" opacity="0.13" /><circle cx="237.6" cy="1593.6" r="2.05" fill="#C89B3C" opacity="0.15" /><circle cx="637.2" cy="844.8" r="2.8" fill="#6E5527" opacity="0.18" /><circle cx="1036.8" cy="96" r="3.55" fill="#6E5527" opacity="0.1" /><circle cx="356.4" cy="1267.2" r="4.3" fill="#C89B3C" opacity="0.13" /><circle cx="756" cy="518.4" r="1.3" fill="#6E5527" opacity="0.15" /><circle cx="75.6" cy="1689.6" r="2.05" fill="#6E5527" opacity="0.18" /><circle cx="475.2" cy="940.8" r="2.8" fill="#C89B3C" opacity="0.1" /><circle cx="874.8" cy="192" r="3.55" fill="#6E5527" opacity="0.13" /></g><rect x="0" y="0" width="1080" height="1920" fill="#1E1A16" opacity="0.08" /><rect x="0" y="0" width="1080" height="1920" fill="url(#renderer2-vignette-4)" /><rect x="0" y="0" width="1080" height="1920" fill="none" stroke="#4E4029" stroke-width="2" opacity="0.24" /><metadata>{&quot;theme&quot;:&quot;marble&quot;,&quot;texture&quot;:&quot;polished marble veins&quot;,&quot;gradient&quot;:&quot;ivory base with cool gray veining&quot;,&quot;lighting&quot;:&quot;soft&quot;,&quot;overlay&quot;:&quot;pearl sheen&quot;,&quot;atmosphere&quot;:&quot;polished fragrance counter&quot;}</metadata></g> </g><g data-editor-layer="true" data-layer-id="product_image" data-layer-type="product_image" data-layer-label="Product Image" data-layer-x="320" data-layer-y="793" data-layer-width="441" data-layer-height="423" > <g data-product-position="luxury"><ellipse cx="540.5" cy="1192.06" rx="149.4" ry="15.92" fill="#00000066" opacity="0.17" /><ellipse cx="540.5" cy="1004.5" rx="182.6" ry="143.28" fill="#C89B3C" opacity="0.08" filter="url(#renderer2-product-glow-9)" /><g filter="url(#renderer2-product-shadow-8)"><rect x="333" y="806" width="415" height="398" rx="23.88" fill="#1E1A16" opacity="0.88" /><circle cx="540.5" cy="981.12" r="79.6" fill="#C89B3C" opacity="0.16" /><path d="M 465.8 1052.76 C 507.3 957.24, 573.7 957.24, 615.2 1052.76" stroke="#C89B3C" stroke-width="4.98" stroke-linecap="round" fill="none" opacity="0.85" /><text x="540.5" y="1100.52" text-anchor="middle" dominant-baseline="middle" font-family="Playfair Display" font-size="18" font-weight="600" fill="#F6E8C8">Noir Amber Perfume</text></g></g> </g><g data-editor-layer="true" data-layer-id="headline" data-layer-type="headline" data-layer-label="Headline" data-layer-x="190" data-layer-y="302" data-layer-width="490" data-layer-height="122" > <text x="190" y="353" text-anchor="start" font-family="Playfair Display" font-size="54" font-weight="600" fill="#F6E8C8" letter-spacing="0.2" paint-order="stroke" stroke="#F6E8C8" stroke-width="0"><tspan x="190" dy="0">Noir Amber</tspan><tspan x="190" dy="60.48">Perfume</tspan></text> </g><g data-editor-layer="true" data-layer-id="description" data-layer-type="description" data-layer-label="Description" data-layer-x="190" data-layer-y="436" data-layer-width="490" data-layer-height="50" > <text x="190" y="449" text-anchor="start" font-family="Inter" font-size="14" font-weight="400" fill="#B9AB92"><tspan x="190" dy="0">Instagram Story production-quality</tspan><tspan x="190" dy="16.52">Renderer V2 sample using luxury, luxury,</tspan><tspan x="190" dy="16.52">luxury, and marble.</tspan></text> </g><g data-editor-layer="true" data-layer-id="price" data-layer-type="price" data-layer-label="Price" data-layer-x="190" data-layer-y="1525" data-layer-width="154" data-layer-height="48" > <text x="190" y="1555" text-anchor="start" font-family="Inter" font-size="20" font-weight="600" fill="#C89B3C" letter-spacing="0.07"><tspan x="190" dy="0">$98</tspan></text> </g><g data-editor-layer="true" data-layer-id="cta" data-layer-type="cta" data-layer-label="CTA" data-layer-x="360" data-layer-y="1525" data-layer-width="196" data-layer-height="48" > <g data-cta="Shop Now"><rect x="360" y="1529.5" width="127" height="45" rx="22.5" fill="#00000066" opacity="0.14" /><rect x="360" y="1527" width="127" height="45" rx="22.5" fill="#C89B3C" stroke="#4E4029" stroke-width="1" opacity="1" /><rect x="362" y="1528" width="123" height="17.1" rx="20.5" fill="#11100E" opacity="0.09" /><text x="423.5" y="1549.5" text-anchor="middle" dominant-baseline="central" font-family="Inter" font-size="15" font-weight="600" fill="#11100E" letter-spacing="0.5">Shop Now</text></g> </g><g data-editor-layer="true" data-layer-id="decorations" data-layer-type="decoration" data-layer-label="Decorations" data-layer-x="16" data-layer-y="16" data-layer-width="1048" data-layer-height="1888" > <g opacity="0.25" data-decoration="luxury" data-layering="stacked" mask="url(#renderer2-decoration-mask-6)"><g data-decoration-region="0" data-placement="frame"><rect x="16" y="16" width="189" height="189" fill="none" stroke="#6E5527" stroke-width="1" rx="4" opacity="0.16" /><rect x="19" y="19" width="183" height="183" fill="none" stroke="#C89B3C" stroke-width="1" rx="4" opacity="0.28" /></g><g data-decoration-region="1" data-placement="frame"><rect x="875" y="16" width="189" height="189" fill="none" stroke="#6E5527" stroke-width="1" rx="4" opacity="0.16" /><rect x="878" y="19" width="183" height="183" fill="none" stroke="#C89B3C" stroke-width="1" rx="4" opacity="0.28" /></g><g data-decoration-region="2" data-placement="frame"><rect x="16" y="1715" width="189" height="189" fill="none" stroke="#6E5527" stroke-width="1" rx="4" opacity="0.16" /><rect x="19" y="1718" width="183" height="183" fill="none" stroke="#C89B3C" stroke-width="1" rx="4" opacity="0.28" /></g><g data-decoration-region="3" data-placement="frame"><rect x="875" y="1715" width="189" height="189" fill="none" stroke="#6E5527" stroke-width="1" rx="4" opacity="0.16" /><rect x="878" y="1718" width="183" height="183" fill="none" stroke="#C89B3C" stroke-width="1" rx="4" opacity="0.28" /></g></g> </g></svg>