<svg xmlns="http://www.w3.org/2000/svg" width="1080" height="1080" viewBox="0 0 1080 1080" role="img"><defs><linearGradient id="renderer2-bg-1" x1="0%" y1="0%" x2="100%" y2="100%"><stop offset="0%" stop-color="#11100E" /><stop offset="48%" stop-color="#1E1A16" /><stop offset="100%" stop-color="#11100E" /></linearGradient><linearGradient id="renderer2-depth-2" x1="0%" y1="100%" x2="100%" y2="0%"><stop offset="0%" stop-color="#00000066" stop-opacity="0.22" /><stop offset="52%" stop-color="#6E5527" stop-opacity="0.08" /><stop offset="100%" stop-color="#C89B3C" stop-opacity="0.16" /></linearGradient><radialGradient id="renderer2-light-3" cx="58%" cy="28%" r="68%"><stop offset="0%" stop-color="#6E5527" stop-opacity="0.34" /><stop offset="56%" stop-color="#1E1A16" stop-opacity="0.12" /><stop offset="100%" stop-color="#11100E" stop-opacity="0" /></radialGradient><radialGradient id="renderer2-vignette-4" cx="50%" cy="50%" r="74%"><stop offset="45%" stop-color="#000000" stop-opacity="0" /><stop offset="100%" stop-color="#00000066" stop-opacity="0.18" /></radialGradient><pattern id="renderer2-texture-5" width="48" height="48" patternUnits="userSpaceOnUse"><path d="M0 47 L48 1 M-12 12 L12 -12 M36 60 L60 36" stroke="#4E4029" stroke-width="1" opacity="0.05" /><circle cx="11" cy="17" r="1.2" fill="#6E5527" opacity="0.04" /><circle cx="35" cy="31" r="0.9" fill="#C89B3C" opacity="0.03" /></pattern><mask id="renderer2-decoration-mask-6" maskUnits="userSpaceOnUse"><rect x="16" y="16" width="1048" height="1048" fill="#ffffff" /><rect x="247" y="349" width="586" height="489" rx="32" fill="#000000" /><rect x="138" y="149" width="577" height="170" rx="24" fill="#000000" /><rect x="138" y="283" width="577" height="96" rx="24" fill="#000000" /><rect x="138" y="809" width="214" height="96" rx="24" fill="#000000" /><rect x="320" y="809" width="260" height="96" rx="24" fill="#000000" /></mask><clipPath id="renderer2-product-clip-7"><rect x="299" y="398" width="483" height="392" rx="15.68" /></clipPath><filter id="renderer2-product-shadow-8" x="-30%" y="-30%" width="160%" height="160%"><feDropShadow dx="0" dy="11.76" stdDeviation="13.52" flood-color="#00000066" flood-opacity="0.28" /></filter><filter id="renderer2-product-glow-9" x="-40%" y="-40%" width="180%" height="180%"><feGaussianBlur stdDeviation="14.49" result="blur" /><feColorMatrix in="blur" type="matrix" values="0 0 0 0 0.784 0 0 0 0 0.608 0 0 0 0 0.235 0 0 0 0.28 0" /></filter><linearGradient id="renderer2-product-reflection-10" x1="0%" y1="0%" x2="0%" y2="100%"><stop offset="0%" stop-color="#C89B3C" stop-opacity="0.18" /><stop offset="100%" stop-color="#11100E" stop-opacity="0" /></linearGradient></defs><g data-editor-layer="true" data-layer-id="background" data-layer-type="background" data-layer-label="Background" data-layer-x="0" data-layer-y="0" data-layer-width="1080" data-layer-height="1080" > <g data-background="marble"><rect x="0" y="0" width="1080" height="1080" fill="url(#renderer2-bg-1)" /><rect x="0" y="0" width="1080" height="1080" fill="url(#renderer2-depth-2)" opacity="0.52" /><ellipse cx="272.7" cy="342.9" rx="359.1" ry="82.35" fill="#6E5527" opacity="0.04" /><ellipse cx="885.6" cy="491.4" rx="405" ry="89.1" fill="#C89B3C" opacity="0.05" /><ellipse cx="364.5" cy="639.9" rx="450.9" ry="95.85" fill="#6E5527" opacity="0.06" /><rect x="0" y="0" width="1080" height="1080" fill="url(#renderer2-light-3)" opacity="0.6" /><rect x="0" y="0" width="1080" height="1080" fill="url(#renderer2-texture-5)" opacity="0.18" /><g data-background-particles="polished fragrance counter"><circle cx="0" cy="183.6" r="1.3" fill="#C89B3C" opacity="0.05" /><circle cx="399.6" cy="842.4" r="2.05" fill="#6E5527" opacity="0.07" /><circle cx="799.2" cy="421.2" r="2.8" fill="#6E5527" opacity="0.08" /><circle cx="118.8" cy="0" r="3.55" fill="#C89B3C" opacity="0.1" /><circle cx="518.4" cy="658.8" r="4.3" fill="#6E5527" opacity="0.05" /><circle cx="918" cy="237.6" r="1.3" fill="#6E5527" opacity="0.07" /><circle cx="237.6" cy="896.4" r="2.05" fill="#C89B3C" opacity="0.08" /><circle cx="637.2" cy="475.2" r="2.8" fill="#6E5527" opacity="0.1" /><circle cx="1036.8" cy="54" r="3.55" fill="#6E5527" opacity="0.05" /><circle cx="356.4" cy="712.8" r="4.3" fill="#C89B3C" opacity="0.07" /><circle cx="756" cy="291.6" r="1.3" fill="#6E5527" opacity="0.08" /><circle cx="75.6" cy="950.4" r="2.05" fill="#6E5527" opacity="0.1" /><circle cx="475.2" cy="529.2" r="2.8" fill="#C89B3C" opacity="0.05" /><circle cx="874.8" cy="108" r="3.55" fill="#6E5527" opacity="0.07" /></g><rect x="0" y="0" width="1080" height="1080" fill="#1E1A16" opacity="0.08" /><rect x="0" y="0" width="1080" height="1080" fill="url(#renderer2-vignette-4)" /><rect x="0" y="0" width="1080" height="1080" fill="none" stroke="#4E4029" stroke-width="2" opacity="0.24" /><metadata>{&quot;theme&quot;:&quot;marble&quot;,&quot;texture&quot;:&quot;polished marble veins&quot;,&quot;gradient&quot;:&quot;ivory base with cool gray veining&quot;,&quot;lighting&quot;:&quot;soft&quot;,&quot;overlay&quot;:&quot;pearl sheen&quot;,&quot;atmosphere&quot;:&quot;polished fragrance counter&quot;}</metadata></g> </g><g data-editor-layer="true" data-layer-id="product_image" data-layer-type="product_image" data-layer-label="Product Image" data-layer-x="283" data-layer-y="385" data-layer-width="514" data-layer-height="417" > <g data-product-position="luxury"><ellipse cx="540.5" cy="778.24" rx="173.88" ry="15.68" fill="#00000066" opacity="0.17" /><ellipse cx="540" cy="593.5" rx="212.52" ry="141.12" fill="#C89B3C" opacity="0.08" filter="url(#renderer2-product-glow-9)" /><g filter="url(#renderer2-product-shadow-8)"><rect x="299" y="398" width="483" height="392" rx="23.52" fill="#1E1A16" opacity="0.88" /><circle cx="540.5" cy="570.48" r="78.4" fill="#C89B3C" opacity="0.16" /><path d="M 453.56 641.04 C 501.86 546.96, 579.14 546.96, 627.44 641.04" stroke="#C89B3C" stroke-width="5.8" stroke-linecap="round" fill="none" opacity="0.85" /><text x="540.5" y="688.08" text-anchor="middle" dominant-baseline="middle" font-family="Playfair Display" font-size="20.29" font-weight="600" fill="#F6E8C8">Noir Amber Perfume</text></g></g> </g><g data-editor-layer="true" data-layer-id="headline" data-layer-type="headline" data-layer-label="Headline" data-layer-x="162" data-layer-y="173" data-layer-width="529" data-layer-height="122" > <text x="162" y="225" text-anchor="start" font-family="Playfair Display" font-size="55" font-weight="600" fill="#F6E8C8" letter-spacing="0.2" paint-order="stroke" stroke="#F6E8C8" stroke-width="0"><tspan x="162" dy="0">Noir Amber Perfume</tspan></text> </g><g data-editor-layer="true" data-layer-id="description" data-layer-type="description" data-layer-label="Description" data-layer-x="162" data-layer-y="307" data-layer-width="529" data-layer-height="48" > <text x="162" y="319" text-anchor="start" font-family="Inter" font-size="13" font-weight="400" fill="#B9AB92"><tspan x="162" dy="0">Square production-quality Renderer V2</tspan><tspan x="162" dy="15.34">sample using luxury, luxury, luxury, and</tspan><tspan x="162" dy="15.34">marble.</tspan></text> </g><g data-editor-layer="true" data-layer-id="price" data-layer-type="price" data-layer-label="Price" data-layer-x="162" data-layer-y="833" data-layer-width="166" data-layer-height="48" > <text x="162" y="863" text-anchor="start" font-family="Inter" font-size="20" font-weight="600" fill="#C89B3C" letter-spacing="0.07"><tspan x="162" dy="0">$98</tspan></text> </g><g data-editor-layer="true" data-layer-id="cta" data-layer-type="cta" data-layer-label="CTA" data-layer-x="344" data-layer-y="833" data-layer-width="212" data-layer-height="48" > <g data-cta="Shop Now"><rect x="344" y="837.5" width="138" height="45" rx="22.5" fill="#00000066" opacity="0.14" /><rect x="344" y="835" width="138" height="45" rx="22.5" fill="#C89B3C" stroke="#4E4029" stroke-width="1" opacity="1" /><rect x="346" y="836" width="134" height="17.1" rx="20.5" fill="#11100E" opacity="0.09" /><text x="413" y="857.5" text-anchor="middle" dominant-baseline="central" font-family="Inter" font-size="15" font-weight="600" fill="#11100E" letter-spacing="0.5">Shop Now</text></g> </g><g data-editor-layer="true" data-layer-id="decorations" data-layer-type="decoration" data-layer-label="Decorations" data-layer-x="16" data-layer-y="16" data-layer-width="1048" data-layer-height="1048" > <g opacity="0.25" data-decoration="luxury" data-layering="stacked" mask="url(#renderer2-decoration-mask-6)"><g data-decoration-region="0" data-placement="frame"><rect x="16" y="16" width="189" height="189" fill="none" stroke="#6E5527" stroke-width="1" rx="4" opacity="0.16" /><rect x="19" y="19" width="183" height="183" fill="none" stroke="#C89B3C" stroke-width="1" rx="4" opacity="0.28" /></g><g data-decoration-region="1" data-placement="frame"><rect x="875" y="16" width="189" height="189" fill="none" stroke="#6E5527" stroke-width="1" rx="4" opacity="0.16" /><rect x="878" y="19" width="183" height="183" fill="none" stroke="#C89B3C" stroke-width="1" rx="4" opacity="0.28" /></g><g data-decoration-region="2" data-placement="frame"><rect x="16" y="875" width="189" height="189" fill="none" stroke="#6E5527" stroke-width="1" rx="4" opacity="0.16" /><rect x="19" y="878" width="183" height="183" fill="none" stroke="#C89B3C" stroke-width="1" rx="4" opacity="0.28" /></g><g data-decoration-region="3" data-placement="frame"><rect x="875" y="875" width="189" height="189" fill="none" stroke="#6E5527" stroke-width="1" rx="4" opacity="0.16" /><rect x="878" y="878" width="183" height="183" fill="none" stroke="#C89B3C" stroke-width="1" rx="4" opacity="0.28" /></g></g> </g></svg>