<svg xmlns="http://www.w3.org/2000/svg" width="1240" height="1754" viewBox="0 0 1240 1754" role="img"><defs><linearGradient id="renderer2-bg-1" x1="0%" y1="0%" x2="100%" y2="100%"><stop offset="0%" stop-color="#101820" /><stop offset="48%" stop-color="#1A2733" /><stop offset="100%" stop-color="#101820" /></linearGradient><linearGradient id="renderer2-depth-2" x1="0%" y1="100%" x2="100%" y2="0%"><stop offset="0%" stop-color="#00000066" stop-opacity="0.22" /><stop offset="52%" stop-color="#2D78FF" stop-opacity="0.08" /><stop offset="100%" stop-color="#FF4F1F" stop-opacity="0.16" /></linearGradient><radialGradient id="renderer2-light-3" cx="72%" cy="28%" r="68%"><stop offset="0%" stop-color="#2D78FF" stop-opacity="0.46" /><stop offset="56%" stop-color="#1A2733" stop-opacity="0.12" /><stop offset="100%" stop-color="#101820" stop-opacity="0" /></radialGradient><radialGradient id="renderer2-vignette-4" cx="50%" cy="50%" r="74%"><stop offset="45%" stop-color="#000000" stop-opacity="0" /><stop offset="100%" stop-color="#00000066" stop-opacity="0.25" /></radialGradient><pattern id="renderer2-texture-5" width="48" height="48" patternUnits="userSpaceOnUse"><path d="M0 47 L48 1 M-12 12 L12 -12 M36 60 L60 36" stroke="#304454" stroke-width="1" opacity="0.12" /><circle cx="11" cy="17" r="1.2" fill="#2D78FF" opacity="0.1" /><circle cx="35" cy="31" r="0.9" fill="#FF4F1F" opacity="0.08" /></pattern><mask id="renderer2-decoration-mask-6" maskUnits="userSpaceOnUse"><rect x="19" y="19" width="1202" height="1716" fill="#ffffff" /><rect x="175" y="518" width="890" height="859" rx="32" fill="#000000" /><rect x="142" y="221" width="684" height="182" rx="24" fill="#000000" /><rect x="142" y="367" width="684" height="98" rx="24" fill="#000000" /><rect x="142" y="1431" width="228" height="96" rx="24" fill="#000000" /><rect x="338" y="1431" width="268" height="96" rx="24" fill="#000000" /></mask><clipPath id="renderer2-product-clip-7"><rect x="242" y="585" width="757" height="726" rx="29.04" /></clipPath><filter id="renderer2-product-shadow-8" x="-30%" y="-30%" width="160%" height="160%"><feDropShadow dx="0" dy="29.04" stdDeviation="26.5" flood-color="#00000066" flood-opacity="0.38" /></filter><filter id="renderer2-product-glow-9" x="-40%" y="-40%" width="180%" height="180%"><feGaussianBlur stdDeviation="22.71" result="blur" /><feColorMatrix in="blur" type="matrix" values="0 0 0 0 1 0 0 0 0 0.31 0 0 0 0 0.122 0 0 0 0.28 0" /></filter><linearGradient id="renderer2-product-reflection-10" x1="0%" y1="0%" x2="0%" y2="100%"><stop offset="0%" stop-color="#FF4F1F" stop-opacity="0.18" /><stop offset="100%" stop-color="#101820" stop-opacity="0" /></linearGradient></defs><g data-editor-layer="true" data-layer-id="background" data-layer-type="background" data-layer-label="Background" data-layer-x="0" data-layer-y="0" data-layer-width="1240" data-layer-height="1754" > <g data-background="sports"><rect x="0" y="0" width="1240" height="1754" fill="url(#renderer2-bg-1)" /><rect x="0" y="0" width="1240" height="1754" fill="url(#renderer2-depth-2)" opacity="0.7" /><ellipse cx="302.56" cy="508.66" rx="401.76" ry="131.55" fill="#2D78FF" opacity="0.04" /><ellipse cx="1014.32" cy="701.6" rx="443.92" ry="140.32" fill="#FF4F1F" opacity="0.05" /><ellipse cx="386.88" cy="894.54" rx="486.08" ry="149.09" fill="#2D78FF" opacity="0.05" /><ellipse cx="1024.24" cy="1087.48" rx="528.24" ry="157.86" fill="#FF4F1F" opacity="0.06" /><rect x="0" y="0" width="1240" height="1754" fill="url(#renderer2-light-3)" opacity="0.67" /><rect x="0" y="0" width="1240" height="1754" fill="url(#renderer2-texture-5)" opacity="0.2" /><g data-background-particles="fast and competitive"><circle cx="0" cy="298.18" r="1.3" fill="#FF4F1F" opacity="0.1" /><circle cx="458.8" cy="1368.12" r="2.05" fill="#2D78FF" opacity="0.13" /><circle cx="917.6" cy="684.06" r="2.8" fill="#2D78FF" opacity="0.15" /><circle cx="136.4" cy="0" r="3.55" fill="#FF4F1F" opacity="0.18" /><circle cx="595.2" cy="1069.94" r="4.3" fill="#2D78FF" opacity="0.1" /><circle cx="1054" cy="385.88" r="1.3" fill="#2D78FF" opacity="0.13" /><circle cx="272.8" cy="1455.82" r="2.05" fill="#FF4F1F" opacity="0.15" /><circle cx="731.6" cy="771.76" r="2.8" fill="#2D78FF" opacity="0.18" /><circle cx="1190.4" cy="87.7" r="3.55" fill="#2D78FF" opacity="0.1" /><circle cx="409.2" cy="1157.64" r="4.3" fill="#FF4F1F" opacity="0.13" /><circle cx="868" cy="473.58" r="1.3" fill="#2D78FF" opacity="0.15" /><circle cx="86.8" cy="1543.52" r="2.05" fill="#2D78FF" opacity="0.18" /><circle cx="545.6" cy="859.46" r="2.8" fill="#FF4F1F" opacity="0.1" /><circle cx="1004.4" cy="175.4" r="3.55" fill="#2D78FF" opacity="0.13" /></g><rect x="0" y="0" width="1240" height="1754" fill="#1A2733" opacity="0.08" /><rect x="0" y="0" width="1240" height="1754" fill="url(#renderer2-vignette-4)" /><rect x="0" y="0" width="1240" height="1754" fill="none" stroke="#304454" stroke-width="2" opacity="0.24" /><metadata>{&quot;theme&quot;:&quot;sports&quot;,&quot;texture&quot;:&quot;motion streaks and granular court grit&quot;,&quot;gradient&quot;:&quot;deep navy to electric action color&quot;,&quot;lighting&quot;:&quot;rim&quot;,&quot;overlay&quot;:&quot;speed-line energy overlay&quot;,&quot;atmosphere&quot;:&quot;fast and competitive&quot;}</metadata></g> </g><g data-editor-layer="true" data-layer-id="decorations" data-layer-type="decoration" data-layer-label="Decorations" data-layer-x="19" data-layer-y="19" data-layer-width="1202" data-layer-height="1716" > <g opacity="0.29" data-decoration="sports" data-layering="cinematic" mask="url(#renderer2-decoration-mask-6)"><g data-decoration-region="0" data-placement="diagonal"><path d="M 998.4 68.8 L 1227.6 12.4" stroke="#2D78FF" stroke-width="1" stroke-linecap="round" fill="none" opacity="0.16" /><path d="M 998.4 112 L 1227.6 46.96" stroke="#2D78FF" stroke-width="1" stroke-linecap="round" fill="none" opacity="0.16" /><path d="M 998.4 155.2 L 1227.6 90.16" stroke="#2D78FF" stroke-width="1" stroke-linecap="round" fill="none" opacity="0.16" /><path d="M 998.4 198.4 L 1227.6 133.36" stroke="#2D78FF" stroke-width="1" stroke-linecap="round" fill="none" opacity="0.16" /><path d="M 1005 62.2 L 1221 19" stroke="#FF4F1F" stroke-width="1.1" stroke-linecap="round" fill="none" opacity="0.28" /><path d="M 1005 105.4 L 1221 53.56" stroke="#FF4F1F" stroke-width="1.1" stroke-linecap="round" fill="none" opacity="0.28" /><path d="M 1005 148.6 L 1221 96.76" stroke="#FF4F1F" stroke-width="1.1" stroke-linecap="round" fill="none" opacity="0.28" /><path d="M 1005 191.8 L 1221 139.96" stroke="#FF4F1F" stroke-width="1.1" stroke-linecap="round" fill="none" opacity="0.28" /><path d="M 1016 116 L 1210 86.16" stroke="#F8FF2E" stroke-width="1.04" stroke-linecap="round" fill="none" opacity="0.22" /></g><g data-decoration-region="1" data-placement="diagonal"><path d="M 12.4 1568.8 L 241.6 1512.4" stroke="#2D78FF" stroke-width="1" stroke-linecap="round" fill="none" opacity="0.16" /><path d="M 12.4 1612 L 241.6 1546.96" stroke="#2D78FF" stroke-width="1" stroke-linecap="round" fill="none" opacity="0.16" /><path d="M 12.4 1655.2 L 241.6 1590.16" stroke="#2D78FF" stroke-width="1" stroke-linecap="round" fill="none" opacity="0.16" /><path d="M 12.4 1698.4 L 241.6 1633.36" stroke="#2D78FF" stroke-width="1" stroke-linecap="round" fill="none" opacity="0.16" /><path d="M 19 1562.2 L 235 1519" stroke="#FF4F1F" stroke-width="1.1" stroke-linecap="round" fill="none" opacity="0.28" /><path d="M 19 1605.4 L 235 1553.56" stroke="#FF4F1F" stroke-width="1.1" stroke-linecap="round" fill="none" opacity="0.28" /><path d="M 19 1648.6 L 235 1596.76" stroke="#FF4F1F" stroke-width="1.1" stroke-linecap="round" fill="none" opacity="0.28" /><path d="M 19 1691.8 L 235 1639.96" stroke="#FF4F1F" stroke-width="1.1" stroke-linecap="round" fill="none" opacity="0.28" /><path d="M 30 1616 L 224 1586.16" stroke="#F8FF2E" stroke-width="1.04" stroke-linecap="round" fill="none" opacity="0.22" /></g></g> </g><g data-editor-layer="true" data-layer-id="product_image" data-layer-type="product_image" data-layer-label="Product Image" data-layer-x="234" data-layer-y="577" data-layer-width="772" data-layer-height="741" > <g data-product-position="dynamic"><ellipse cx="620.5" cy="1289.22" rx="272.52" ry="29.04" fill="#00000066" opacity="0.26" /><ellipse cx="620" cy="947.5" rx="333.08" ry="261.36" fill="#FF4F1F" opacity="0.08" filter="url(#renderer2-product-glow-9)" /><g transform="rotate(-1.2 620 947.5)" filter="url(#renderer2-product-shadow-8)"><rect x="242" y="585" width="757" height="726" rx="43.56" fill="#1A2733" opacity="0.88" /><circle cx="620.5" cy="904.44" r="145.2" fill="#FF4F1F" opacity="0.16" /><path d="M 484.24 1035.12 C 559.94 860.88, 681.06 860.88, 756.76 1035.12" stroke="#FF4F1F" stroke-width="9.08" stroke-linecap="round" fill="none" opacity="0.85" /><text x="620.5" y="1122.24" text-anchor="middle" dominant-baseline="middle" font-family="Oswald" font-size="31.79" font-weight="600" fill="#F8FF2E">Nike Air Max Running Shoes</text></g></g> </g><g data-editor-layer="true" data-layer-id="headline" data-layer-type="headline" data-layer-label="Headline" data-layer-x="166" data-layer-y="245" data-layer-width="636" data-layer-height="134" > <text x="166" y="306" text-anchor="start" font-family="Oswald" font-size="64" font-weight="800" fill="#F8FF2E" letter-spacing="0.6" paint-order="stroke" stroke="#F8FF2E" stroke-width="0"><tspan x="166" dy="0">NIKE AIR MAX</tspan><tspan x="166" dy="64">RUNNING SHOES</tspan></text> </g><g data-editor-layer="true" data-layer-id="description" data-layer-type="description" data-layer-label="Description" data-layer-x="166" data-layer-y="391" data-layer-width="636" data-layer-height="50" > <text x="166" y="404" text-anchor="start" font-family="Barlow" font-size="14" font-weight="400" fill="#AAB8C2"><tspan x="166" dy="0">A4 Print production-quality</tspan><tspan x="166" dy="16.52">Renderer V2 sample using diagonal,</tspan><tspan x="166" dy="16.52">sport, sport, and sports.</tspan></text> </g><g data-editor-layer="true" data-layer-id="price" data-layer-type="price" data-layer-label="Price" data-layer-x="166" data-layer-y="1455" data-layer-width="180" data-layer-height="48" > <text x="166" y="1486" text-anchor="start" font-family="Oswald" font-size="22" font-weight="800" fill="#FF4F1F" letter-spacing="0.21"><tspan x="166" dy="0">$129</tspan></text> </g><g data-editor-layer="true" data-layer-id="cta" data-layer-type="cta" data-layer-label="CTA" data-layer-x="362" data-layer-y="1455" data-layer-width="220" data-layer-height="48" > <g data-cta="Shop Now"><rect x="362" y="1459.5" width="143" height="45" rx="22.5" fill="#00000066" opacity="0.14" /><rect x="362" y="1457" width="143" height="45" rx="22.5" fill="#F8FF2E" stroke="#304454" stroke-width="1" opacity="1" /><rect x="364" y="1458" width="139" height="17.1" rx="20.5" fill="#101820" opacity="0.09" /><text x="433.5" y="1479.5" text-anchor="middle" dominant-baseline="central" font-family="Oswald" font-size="16" font-weight="800" fill="#101820" letter-spacing="0.5">Shop Now</text></g> </g></svg>