<svg xmlns="http://www.w3.org/2000/svg" width="1080" height="1350" viewBox="0 0 1080 1350" role="img"><defs><linearGradient id="renderer2-bg-1" x1="0%" y1="0%" x2="100%" y2="100%"><stop offset="0%" stop-color="#F2ECE8" stop-opacity="1" /><stop offset="48%" stop-color="#FFFBF8" stop-opacity="0.92" /><stop offset="100%" stop-color="#B21F4A" stop-opacity="0.22" /></linearGradient><linearGradient id="renderer2-depth-2" x1="0%" y1="100%" x2="100%" y2="0%"><stop offset="0%" stop-color="#17131324" stop-opacity="0.22" /><stop offset="52%" stop-color="#D7A0AE" stop-opacity="0.08" /><stop offset="100%" stop-color="#B21F4A" stop-opacity="0.16" /></linearGradient><radialGradient id="renderer2-light-3" cx="58%" cy="28%" r="68%"><stop offset="0%" stop-color="#D7A0AE" stop-opacity="0.47" /><stop offset="56%" stop-color="#FFFBF8" stop-opacity="0.12" /><stop offset="100%" stop-color="#F2ECE8" stop-opacity="0" /></radialGradient><radialGradient id="renderer2-vignette-4" cx="50%" cy="50%" r="74%"><stop offset="45%" stop-color="#000000" stop-opacity="0" /><stop offset="100%" stop-color="#17131324" stop-opacity="0.17" /></radialGradient><pattern id="renderer2-texture-5" width="48" height="48" patternUnits="userSpaceOnUse"><path d="M0 47 L48 1 M-12 12 L12 -12 M36 60 L60 36" stroke="#DECFC8" stroke-width="1" opacity="0.06" /><circle cx="11" cy="17" r="1.2" fill="#D7A0AE" opacity="0.05" /><circle cx="35" cy="31" r="0.9" fill="#B21F4A" opacity="0.04" /></pattern><mask id="renderer2-decoration-mask-6" maskUnits="userSpaceOnUse"><rect x="22.68" y="22.68" width="1034.64" height="1304.64" fill="#ffffff" /><rect x="447.66" y="683.24" width="184.68" height="296.68" rx="11.34" fill="#000000" /><rect x="356.26" y="326.26" width="368.47" height="174.83" rx="10.74" fill="#000000" /><rect x="442" y="461.6" width="196" height="57" rx="8" fill="#000000" /><rect x="442" y="535" width="196" height="94" rx="8" fill="#000000" /></mask><clipPath id="renderer2-product-clip-7"><rect x="452.52" y="683.62" width="174.96" height="295.92" rx="9.62" /></clipPath><filter id="renderer2-product-shadow-8" x="-55%" y="-55%" width="210%" height="220%"><feDropShadow dx="0" dy="22" stdDeviation="11.84" flood-color="#17131324" flood-opacity="0.63" /></filter><filter id="renderer2-product-glow-9" x="-70%" y="-70%" width="240%" height="240%"><feGaussianBlur stdDeviation="8" result="blur" /><feColorMatrix in="blur" type="matrix" values="0 0 0 0 0.698 0 0 0 0 0.122 0 0 0 0 0.29 0 0 0 0.49 0" /></filter><linearGradient id="renderer2-product-reflection-10" x1="0%" y1="0%" x2="0%" y2="100%"><stop offset="0%" stop-color="#FFFFFF" stop-opacity="0.24" /><stop offset="100%" stop-color="#FFFFFF" stop-opacity="0" /></linearGradient></defs><g data-background="fashion"><rect x="0" y="0" width="1080" height="1350" fill="url(#renderer2-bg-1)" /><rect x="0" y="0" width="1080" height="1350" fill="url(#renderer2-depth-2)" opacity="0.72" /><ellipse cx="272.7" cy="428.63" rx="359.1" ry="102.94" fill="#D7A0AE" opacity="0.06" /><ellipse cx="885.6" cy="614.25" rx="405" ry="111.38" fill="#B21F4A" opacity="0.07" /><ellipse cx="364.5" cy="799.88" rx="450.9" ry="119.81" fill="#D7A0AE" opacity="0.08" /><rect x="0" y="0" width="1080" height="1350" fill="url(#renderer2-light-3)" opacity="0.62" /><rect x="0" y="0" width="1080" height="1350" fill="url(#renderer2-texture-5)" opacity="0.18" /><g data-background-particles="runway lookbook"><circle cx="0" cy="229.5" r="1.3" fill="#B21F4A" opacity="0.08" /><circle cx="399.6" cy="1053" r="2.05" fill="#D7A0AE" opacity="0.1" /><circle cx="799.2" cy="526.5" r="2.8" fill="#D7A0AE" opacity="0.12" /><circle cx="118.8" cy="0" r="3.55" fill="#B21F4A" opacity="0.15" /><circle cx="518.4" cy="823.5" r="4.3" fill="#D7A0AE" opacity="0.08" /><circle cx="918" cy="297" r="1.3" fill="#D7A0AE" opacity="0.1" /><circle cx="237.6" cy="1120.5" r="2.05" fill="#B21F4A" opacity="0.12" /><circle cx="637.2" cy="594" r="2.8" fill="#D7A0AE" opacity="0.15" /><circle cx="1036.8" cy="67.5" r="3.55" fill="#D7A0AE" opacity="0.08" /><circle cx="356.4" cy="891" r="4.3" fill="#B21F4A" opacity="0.1" /><circle cx="756" cy="364.5" r="1.3" fill="#D7A0AE" opacity="0.12" /><circle cx="75.6" cy="1188" r="2.05" fill="#D7A0AE" opacity="0.15" /><circle cx="475.2" cy="661.5" r="2.8" fill="#B21F4A" opacity="0.08" /><circle cx="874.8" cy="135" r="3.55" fill="#D7A0AE" opacity="0.1" /><circle cx="194.4" cy="958.5" r="4.3" fill="#D7A0AE" opacity="0.12" /><circle cx="594" cy="432" r="1.3" fill="#B21F4A" opacity="0.15" /><circle cx="993.6" cy="1255.5" r="2.05" fill="#D7A0AE" opacity="0.08" /><circle cx="313.2" cy="729" r="2.8" fill="#D7A0AE" opacity="0.1" /><circle cx="712.8" cy="202.5" r="3.55" fill="#B21F4A" opacity="0.12" /><circle cx="32.4" cy="1026" r="4.3" fill="#D7A0AE" opacity="0.15" /><circle cx="432" cy="499.5" r="1.3" fill="#D7A0AE" opacity="0.08" /></g><rect x="0" y="0" width="1080" height="1350" fill="#FFFBF8" opacity="0.08" /><rect x="0" y="0" width="1080" height="1350" fill="url(#renderer2-vignette-4)" /><rect x="0" y="0" width="1080" height="1350" fill="none" stroke="#DECFC8" stroke-width="2" opacity="0.24" /><metadata>{&quot;theme&quot;:&quot;fashion&quot;,&quot;texture&quot;:&quot;soft fabric sweep and subtle backdrop seams&quot;,&quot;gradient&quot;:&quot;blush neutral to ink edge fade&quot;,&quot;lighting&quot;:&quot;soft&quot;,&quot;overlay&quot;:&quot;low-contrast editorial wash&quot;,&quot;atmosphere&quot;:&quot;runway lookbook&quot;}</metadata></g><g opacity="0.34" data-decoration="fashion" data-layering="stacked" mask="url(#renderer2-decoration-mask-6)"><g data-decoration-region="0" data-placement="full-composition"><path d="M 27.18 257.52 C 312.38 127.05, 767.62 127.05, 1052.82 257.52" stroke="#D7A0AE" stroke-width="7.57" fill="none" opacity="0.32" /><path d="M 27.18 1092.48 C 312.38 1222.95, 767.62 1222.95, 1052.82 1092.48" stroke="#D7A0AE" stroke-width="7.57" fill="none" opacity="0.21" /><rect x="122.49" y="242.37" width="30.29" height="30.29" rx="7.57" fill="#D7A0AE" opacity="0.32" /><rect x="237.45" y="1077.34" width="30.29" height="30.29" rx="7.57" fill="#D7A0AE" opacity="0.32" /><rect x="352.41" y="242.37" width="30.29" height="30.29" rx="7.57" fill="#D7A0AE" opacity="0.32" /><rect x="467.37" y="1077.34" width="30.29" height="30.29" rx="7.57" fill="#D7A0AE" opacity="0.32" /><rect x="582.33" y="242.37" width="30.29" height="30.29" rx="7.57" fill="#D7A0AE" opacity="0.32" /><rect x="697.29" y="1077.34" width="30.29" height="30.29" rx="7.57" fill="#D7A0AE" opacity="0.32" /><rect x="812.25" y="242.37" width="30.29" height="30.29" rx="7.57" fill="#D7A0AE" opacity="0.32" /><rect x="927.21" y="1077.34" width="30.29" height="30.29" rx="7.57" fill="#D7A0AE" opacity="0.32" /><path d="M 22.68 257.52 C 312.38 127.05, 767.62 127.05, 1057.32 257.52" stroke="#B21F4A" stroke-width="7.57" fill="none" opacity="0.68" /><path d="M 22.68 1092.48 C 312.38 1222.95, 767.62 1222.95, 1057.32 1092.48" stroke="#D7A0AE" stroke-width="7.57" fill="none" opacity="0.44" /><rect x="122.49" y="242.37" width="30.29" height="30.29" rx="7.57" fill="#B21F4A" opacity="0.68" /><rect x="237.45" y="1077.34" width="30.29" height="30.29" rx="7.57" fill="#B21F4A" opacity="0.68" /><rect x="352.41" y="242.37" width="30.29" height="30.29" rx="7.57" fill="#B21F4A" opacity="0.68" /><rect x="467.37" y="1077.34" width="30.29" height="30.29" rx="7.57" fill="#B21F4A" opacity="0.68" /><rect x="582.33" y="242.37" width="30.29" height="30.29" rx="7.57" fill="#B21F4A" opacity="0.68" /><rect x="697.29" y="1077.34" width="30.29" height="30.29" rx="7.57" fill="#B21F4A" opacity="0.68" /><rect x="812.25" y="242.37" width="30.29" height="30.29" rx="7.57" fill="#B21F4A" opacity="0.68" /><rect x="927.21" y="1077.34" width="30.29" height="30.29" rx="7.57" fill="#B21F4A" opacity="0.68" /><path d="M 15.68 257.52 C 312.38 127.05, 767.62 127.05, 1064.32 257.52" stroke="#171313" stroke-width="5.68" fill="none" opacity="0.42" /><path d="M 15.68 1092.48 C 312.38 1222.95, 767.62 1222.95, 1064.32 1092.48" stroke="#D7A0AE" stroke-width="5.68" fill="none" opacity="0.27" /><rect x="218.25" y="246.15" width="22.72" height="22.72" rx="5.68" fill="#171313" opacity="0.42" /><rect x="425.18" y="1081.12" width="22.72" height="22.72" rx="5.68" fill="#171313" opacity="0.42" /><rect x="632.1" y="246.15" width="22.72" height="22.72" rx="5.68" fill="#171313" opacity="0.42" /><rect x="839.03" y="1081.12" width="22.72" height="22.72" rx="5.68" fill="#171313" opacity="0.42" /></g></g><g data-product-position="center-focus"><ellipse cx="540" cy="961.78" rx="66.48" ry="20.71" fill="#17131324" opacity="0.17" /><g transform="translate(4 -2) rotate(0 540 831.58) skewX(-1)" filter="url(#renderer2-product-shadow-8)"><rect x="459.81" y="690.91" width="160.38" height="281.34" rx="11.37" fill="none" stroke="#DECFC8" stroke-width="1" opacity="0.24" /><rect x="452.52" y="683.62" width="174.96" height="295.92" rx="14" fill="#FFFBF8" opacity="0.52" /><path d="M 484.01 867.09 C 512.01 766.48, 571.49 766.48, 595.99 867.09" stroke="#B21F4A" stroke-width="3" fill="none" opacity="0.5" /><text x="540" y="831.58" text-anchor="middle" dominant-baseline="middle" font-family="Inter" font-size="18" fill="#7D6A64">Product Image</text></g></g><text x="540.5" y="383.89" text-anchor="middle" font-family="Bodoni 72" font-size="46.89" font-weight="700" fill="#171313" letter-spacing="0.1" paint-order="stroke" stroke="#171313" stroke-width="0"><tspan x="540.5" dy="0">AURORA RUNNER</tspan><tspan x="540.5" dy="49.71">PREMIUM</tspan><tspan x="540.5" dy="49.71">SNEAKER</tspan></text><text x="540" y="508.61" text-anchor="middle" font-family="Inter" font-size="19.87" font-weight="700" fill="#B21F4A" letter-spacing="0.03"><tspan x="540" dy="0">$148</tspan></text><g data-cta="Shop Drop"><rect x="450" y="555.48" width="180" height="78" rx="10" fill="#17131324" opacity="0.29" /><rect x="450" y="543" width="180" height="78" rx="10" fill="#171313" stroke="#DECFC8" stroke-width="1" opacity="1" /><rect x="452" y="545" width="176" height="32.76" rx="8" fill="#FFFFFF" opacity="0.16" /><text x="540" y="582" text-anchor="middle" dominant-baseline="middle" font-family="Inter" font-size="16.8" font-weight="700" fill="#FFFFFF">Shop Drop</text></g></svg>